<?xml version="1.0" encoding="UTF-8"?>
<svg width="216px" height="56px" viewBox="0 0 216 56" version="1.1" xmlns="http://www.w3.org/2000/svg" xmlns:xlink="http://www.w3.org/1999/xlink">
    <!-- Generator: Sketch 51.3 (57544) - http://www.bohemiancoding.com/sketch -->
    <title>Group Copy</title>
    <desc>Created with Sketch.</desc>
    <defs></defs>
    <g id="Page-1" stroke="none" stroke-width="1" fill="none" fill-rule="evenodd">
        <g id="Group-Copy">
            <path d="M0,0 L0,44.3102824 L24,52 L24,7.68971762 L0,0 Z M4.68414547,6.38367687 L19.3158545,11.0719171 L19.3158545,45.6160133 L4.68414547,40.9280829 L4.68414547,6.38367687 Z" id="Fill-5" fill="#000000"></path>
            <polygon id="Fill-6" fill="#000000" points="8 12.1760197 8 56 24 50.8242867 24 7"></polygon>
            <path d="M38.3541003,37.685 C36.1180222,35.4749889 35,32.6800169 35,29.3 C35,25.9199831 36.1233974,23.1304277 38.3702258,20.93125 C40.6170542,18.7320723 43.3637338,17.6325 46.6103471,17.6325 C49.1259349,17.6325 51.3619794,18.3041599 53.3185477,19.6475 C55.275116,20.9908401 56.6403932,22.8541547 57.4144202,25.2375 L50.8352235,25.2375 C49.9751935,23.5691583 48.5991661,22.735 46.7071,22.735 C44.815034,22.735 43.3261294,23.3308274 42.2403415,24.5225 C41.1545536,25.7141726 40.6116678,27.3066567 40.6116678,29.3 C40.6116678,31.2933433 41.1545536,32.8858274 42.2403415,34.0775 C43.3261294,35.2691726 44.815034,35.865 46.7071,35.865 C48.5991661,35.865 49.9751935,35.0308417 50.8352235,33.3625 L57.4144202,33.3625 C56.6403932,35.7458452 55.275116,37.6091599 53.3185477,38.9525 C51.3619794,40.29584 49.1259349,40.9675 46.6103471,40.9675 C43.3637338,40.9675 40.6116791,39.8733443 38.3541003,37.685 Z M66.7931271,16.7225 L66.7931271,25.3025 C67.9326668,23.3958238 69.749453,22.4425 72.24354,22.4425 C74.3076121,22.4425 75.9792703,23.1358264 77.258565,24.5225 C78.5378596,25.9091736 79.1774974,27.7941547 79.1774974,30.1775 L79.1774974,40.7725 L73.6948334,40.7725 L73.6948334,30.925 C73.6948334,29.7549942 73.3884523,28.8504199 72.7756809,28.21125 C72.1629096,27.5720801 71.3190178,27.2525 70.2439802,27.2525 C69.1689427,27.2525 68.3250509,27.5720801 67.7122795,28.21125 C67.0995082,28.8504199 66.7931271,29.7549942 66.7931271,30.925 L66.7931271,40.7725 L61.2782122,40.7725 L61.2782122,16.7225 L66.7931271,16.7225 Z M89.2012235,20.59 C88.5777018,21.2183365 87.8144366,21.5325 86.9114051,21.5325 C86.0083735,21.5325 85.2451084,21.2183365 84.6215866,20.59 C83.9980648,19.9616635 83.6863086,19.1870879 83.6863086,18.26625 C83.6863086,17.3454121 83.9980648,16.5708365 84.6215866,15.9425 C85.2451084,15.3141635 86.0083735,15 86.9114051,15 C87.8144366,15 88.5777018,15.3141635 89.2012235,15.9425 C89.8247453,16.5708365 90.1365015,17.3454121 90.1365015,18.26625 C90.1365015,19.1870879 89.8247453,19.9616635 89.2012235,20.59 Z M84.1700731,40.7725 L84.1700731,22.6375 L89.684988,22.6375 L89.684988,40.7725 L84.1700731,40.7725 Z M94.8388185,40.7725 L94.8388185,16.7225 L100.353733,16.7225 L100.353733,40.7725 L94.8388185,40.7725 Z M113.151043,41 C110.527951,41 108.377908,40.1495918 106.70085,38.44875 C105.023791,36.7479082 104.185274,34.4891807 104.185274,31.6725 C104.185274,28.8558193 105.018416,26.6133417 106.684724,24.945 C108.351032,23.2766583 110.50645,22.4425 113.151043,22.4425 C115.795635,22.4425 117.988678,23.2658251 119.730239,24.9125 C121.4718,26.5591749 122.342567,28.8449854 122.342567,31.77 C122.342567,32.3983365 122.299567,32.9833306 122.213564,33.525 L109.829193,33.525 C109.936697,34.3266707 110.291454,34.9820808 110.893475,35.49125 C111.495496,36.0004192 112.145884,36.255 112.844658,36.255 C113.543433,36.255 114.064818,36.184584 114.40883,36.04375 C114.752842,35.902916 115.005472,35.762084 115.166728,35.62125 C115.327983,35.480416 115.537613,35.2475016 115.795622,34.9225 L121.76205,34.9225 C121.246032,36.7425091 120.214011,38.2104111 118.665957,39.32625 C117.117903,40.4420889 115.279617,41 113.151043,41 Z M116.601896,30.0475 C116.515893,29.2024958 116.150385,28.514586 115.505363,27.98375 C114.86034,27.452914 114.097075,27.1875 113.215544,27.1875 C112.334014,27.1875 111.592249,27.452914 110.990228,27.98375 C110.388207,28.514586 110.011949,29.2024958 109.861444,30.0475 L116.601896,30.0475 Z M126.206359,40.7725 L126.206359,16.7225 L131.721274,16.7225 L131.721274,40.7725 L126.206359,40.7725 Z M144.518583,41 C141.895492,41 139.745449,40.1495918 138.06839,38.44875 C136.391332,36.7479082 135.552815,34.4891807 135.552815,31.6725 C135.552815,28.8558193 136.385957,26.6133417 138.052265,24.945 C139.718573,23.2766583 141.873991,22.4425 144.518583,22.4425 C147.163176,22.4425 149.356219,23.2658251 151.09778,24.9125 C152.839341,26.5591749 153.710108,28.8449854 153.710108,31.77 C153.710108,32.3983365 153.667107,32.9833306 153.581104,33.525 L141.196734,33.525 C141.304238,34.3266707 141.658995,34.9820808 142.261016,35.49125 C142.863037,36.0004192 143.513425,36.255 144.212199,36.255 C144.910974,36.255 145.432359,36.184584 145.776371,36.04375 C146.120383,35.902916 146.373013,35.762084 146.534269,35.62125 C146.695524,35.480416 146.905153,35.2475016 147.163162,34.9225 L153.129591,34.9225 C152.613573,36.7425091 151.581552,38.2104111 150.033498,39.32625 C148.485444,40.4420889 146.647158,41 144.518583,41 Z M147.969437,30.0475 C147.883434,29.2024958 147.517926,28.514586 146.872904,27.98375 C146.227881,27.452914 145.464616,27.1875 144.583085,27.1875 C143.701555,27.1875 142.95979,27.452914 142.357769,27.98375 C141.755748,28.514586 141.37949,29.2024958 141.228985,30.0475 L147.969437,30.0475 Z M168.539228,35.02 C169.334756,34.2399961 169.732514,33.1350071 169.732514,31.705 C169.732514,30.2749928 169.334756,29.1754205 168.539228,28.40625 C167.7437,27.6370795 166.829932,27.2525 165.797896,27.2525 C164.76586,27.2525 163.852092,27.6424961 163.056564,28.4225 C162.261036,29.2025039 161.863278,30.3074928 161.863278,31.7375 C161.863278,33.1675071 162.261036,34.2670795 163.056564,35.03625 C163.852092,35.8054205 164.76586,36.19 165.797896,36.19 C166.829932,36.19 167.7437,35.8000039 168.539228,35.02 Z M158.638182,38.4 C157.047126,36.666658 156.251611,34.4458469 156.251611,31.7375 C156.251611,29.0291531 157.047126,26.8029254 158.638182,25.05875 C160.229238,23.3145746 162.169651,22.4425 164.459481,22.4425 C166.749311,22.4425 168.506971,23.2983248 169.732514,25.01 L169.732514,22.6375 L175.247429,22.6375 L175.247429,40.7725 L169.732514,40.7725 L169.732514,38.14 C168.399467,40.0466762 166.614932,41 164.378854,41 C162.142776,41 160.229238,40.133342 158.638182,38.4 Z M185.916174,40.7725 L180.401259,40.7725 L180.401259,16.7225 L185.916174,16.7225 L185.916174,30.21 L191.495591,22.6375 L198.913313,22.6375 L191.205332,31.9 L198.913313,40.7725 L191.592344,40.7725 L185.916174,33.525 L185.916174,40.7725 Z M200.551788,28.0975 C200.551788,26.4941586 201.229052,25.1508387 202.583599,24.0675 C203.938146,22.9841612 205.771058,22.4425 208.082388,22.4425 C210.393719,22.4425 212.258881,22.973328 213.677931,24.035 C215.09698,25.096672 215.849495,26.5483241 215.935498,28.39 L210.291579,28.39 C210.227077,27.7616635 210.012073,27.3337511 209.64656,27.10625 C209.281047,26.8787489 208.732786,26.765 208.001761,26.765 C206.561211,26.765 205.840946,27.2091622 205.840946,28.0975 C205.840946,28.8991707 206.722464,29.4516652 208.485525,29.755 C210.270088,30.0583348 211.89337,30.5241635 213.355421,31.1525 C214.107947,31.4558349 214.736835,31.9595798 215.242102,32.66375 C215.74737,33.3679202 216,34.2291616 216,35.2475 C216,36.9375084 215.279736,38.3187446 213.839185,39.39125 C212.398635,40.4637554 210.581849,41 208.388772,41 C206.195696,41 204.36816,40.496255 202.906108,39.48875 C201.444057,38.481245 200.648542,36.9916765 200.519537,35.02 L206.163456,35.02 C206.313961,36.1250055 207.087977,36.6775 208.485525,36.6775 C209.130548,36.6775 209.662683,36.5258348 210.081948,36.2225 C210.501213,35.9191652 210.710842,35.529169 210.710842,35.0525 C210.710842,34.5758309 210.36146,34.1966681 209.662686,33.915 C208.963911,33.6333319 208.120019,33.395001 207.130985,33.2 C206.14195,33.004999 205.147556,32.7612515 204.147771,32.46875 C203.147986,32.1762485 202.298719,31.667087 201.599944,30.94125 C200.90117,30.215413 200.551788,29.2675058 200.551788,28.0975 Z" id="Chileleaks" fill="#111111"></path>
        </g>
    </g>
</svg>