<?xml version="1.0" encoding="UTF-8"?>
<svg width="133px" height="35px" viewBox="0 0 133 35" version="1.1" xmlns="http://www.w3.org/2000/svg" xmlns:xlink="http://www.w3.org/1999/xlink">
    <!-- Generator: Sketch 51.3 (57544) - http://www.bohemiancoding.com/sketch -->
    <title>Group Copy</title>
    <desc>Created with Sketch.</desc>
    <defs></defs>
    <g id="Page-1" stroke="none" stroke-width="1" fill="none" fill-rule="evenodd">
        <g id="Group-Copy">
            <path d="M0,0 L0,26.9325348 L14.4710807,31.6064745 L14.4710807,4.67393969 L0,0 Z M2.82436029,3.88010616 L11.6467204,6.7296974 L11.6467204,27.7261801 L2.82436029,24.8767771 L2.82436029,3.88010616 Z" id="Fill-5" fill="#000000"></path>
            <polygon id="Fill-6" fill="#000000" points="4.48 7.94098285 4.48 34.8735177 14.3285443 31.6927231 14.3285443 4.76"></polygon>
            <path d="M23.46344,23.5914 C22.0850864,22.2395532 21.39592,20.5298903 21.39592,18.46236 C21.39592,16.3948297 22.0883997,14.6884801 23.47338,13.34326 C24.8583603,11.9980399 26.5514567,11.32544 28.55272,11.32544 C30.1033678,11.32544 31.4817006,11.7362892 32.68776,12.558 C33.8938194,13.3797108 34.7353976,14.519486 35.21252,15.97736 L31.157,15.97736 C30.626864,14.9568482 29.7786592,14.4466 28.61236,14.4466 C27.4460608,14.4466 26.5282767,14.811063 25.85898,15.54 C25.1896833,16.268937 24.85504,17.2430472 24.85504,18.46236 C24.85504,19.6816728 25.1896833,20.655783 25.85898,21.38472 C26.5282767,22.113657 27.4460608,22.47812 28.61236,22.47812 C29.7786592,22.47812 30.626864,21.9678718 31.157,20.94736 L35.21252,20.94736 C34.7353976,22.405234 33.8938194,23.5450092 32.68776,24.36672 C31.4817006,25.1884308 30.1033678,25.59928 28.55272,25.59928 C26.5514567,25.59928 24.855047,24.9299934 23.46344,23.5914 Z M40.993702,10.7688 L40.993702,16.01712 C41.6961321,14.8508208 42.8160276,14.26768 44.353422,14.26768 C45.6257483,14.26768 46.6561847,14.6917824 47.444762,15.54 C48.2333392,16.3882176 48.627622,17.541246 48.627622,18.99912 L48.627622,25.48 L45.248022,25.48 L45.248022,19.45636 C45.248022,18.7406764 45.0591638,18.1873553 44.681442,17.79638 C44.3037201,17.4054047 43.7835319,17.20992 43.120862,17.20992 C42.458192,17.20992 41.9380038,17.4054047 41.560282,17.79638 C41.1825601,18.1873553 40.993702,18.7406764 40.993702,19.45636 L40.993702,25.48 L37.594222,25.48 L37.594222,10.7688 L40.993702,10.7688 Z M54.8064039,13.13452 C54.4220553,13.5188686 53.9515667,13.71104 53.3949239,13.71104 C52.8382811,13.71104 52.3677925,13.5188686 51.9834439,13.13452 C51.5990953,12.7501714 51.4069239,12.2763695 51.4069239,11.7131 C51.4069239,11.1498305 51.5990953,10.6760286 51.9834439,10.29168 C52.3677925,9.90733141 52.8382811,9.71516 53.3949239,9.71516 C53.9515667,9.71516 54.4220553,9.90733141 54.8064039,10.29168 C55.1907525,10.6760286 55.3829239,11.1498305 55.3829239,11.7131 C55.3829239,12.2763695 55.1907525,12.7501714 54.8064039,13.13452 Z M51.7051239,25.48 L51.7051239,14.38696 L55.1046039,14.38696 L55.1046039,25.48 L51.7051239,25.48 Z M58.2815059,25.48 L58.2815059,10.7688 L61.6809859,10.7688 L61.6809859,25.48 L58.2815059,25.48 Z M69.5694478,25.61916 C67.9525331,25.61916 66.627213,25.0989719 65.5934478,24.05858 C64.5596827,23.0181881 64.0428078,21.6365419 64.0428078,19.9136 C64.0428078,18.1906581 64.5563694,16.8189518 65.5835078,15.79844 C66.6106463,14.7779282 67.9392797,14.26768 69.5694478,14.26768 C71.199616,14.26768 72.5514425,14.7713016 73.6249678,15.77856 C74.6984932,16.7858184 75.2352478,18.1840311 75.2352478,19.97324 C75.2352478,20.3575886 75.2087414,20.715425 75.1557278,21.04676 L67.5218078,21.04676 C67.5880748,21.5371358 67.8067526,21.9380451 68.1778478,22.2495 C68.548943,22.5609549 68.9498523,22.71668 69.3805878,22.71668 C69.8113233,22.71668 70.1327134,22.6736071 70.3447678,22.58746 C70.5568222,22.5013129 70.7125473,22.4151671 70.8119478,22.32902 C70.9113483,22.2428729 71.040567,22.100401 71.1996078,21.9016 L74.8774078,21.9016 C74.5593262,23.0148856 73.9231726,23.9127899 72.9689278,24.59534 C72.0146831,25.2778901 70.8815344,25.61916 69.5694478,25.61916 Z M71.6966078,18.9196 C71.6435942,18.4027174 71.4182898,17.9819283 71.0206878,17.65722 C70.6230858,17.3325117 70.1525972,17.17016 69.6092078,17.17016 C69.0658184,17.17016 68.608583,17.3325117 68.2374878,17.65722 C67.8663926,17.9819283 67.6344616,18.4027174 67.5416878,18.9196 L71.6966078,18.9196 Z M77.6169498,25.48 L77.6169498,10.7688 L81.0164298,10.7688 L81.0164298,25.48 L77.6169498,25.48 Z M88.9048917,25.61916 C87.287977,25.61916 85.9626569,25.0989719 84.9288917,24.05858 C83.8951266,23.0181881 83.3782517,21.6365419 83.3782517,19.9136 C83.3782517,18.1906581 83.8918133,16.8189518 84.9189517,15.79844 C85.9460902,14.7779282 87.2747236,14.26768 88.9048917,14.26768 C90.5350599,14.26768 91.8868864,14.7713016 92.9604117,15.77856 C94.0339371,16.7858184 94.5706917,18.1840311 94.5706917,19.97324 C94.5706917,20.3575886 94.5441853,20.715425 94.4911717,21.04676 L86.8572517,21.04676 C86.9235187,21.5371358 87.1421966,21.9380451 87.5132917,22.2495 C87.8843869,22.5609549 88.2852963,22.71668 88.7160317,22.71668 C89.1467672,22.71668 89.4681574,22.6736071 89.6802117,22.58746 C89.8922661,22.5013129 90.0479912,22.4151671 90.1473917,22.32902 C90.2467922,22.2428729 90.3760109,22.100401 90.5350517,21.9016 L94.2128517,21.9016 C93.8947702,23.0148856 93.2586165,23.9127899 92.3043717,24.59534 C91.350127,25.2778901 90.2169783,25.61916 88.9048917,25.61916 Z M91.0320517,18.9196 C90.9790381,18.4027174 90.7537337,17.9819283 90.3561317,17.65722 C89.9585298,17.3325117 89.4880411,17.17016 88.9446517,17.17016 C88.4012624,17.17016 87.9440269,17.3325117 87.5729317,17.65722 C87.2018366,17.9819283 86.9699055,18.4027174 86.8771317,18.9196 L91.0320517,18.9196 Z M103.711594,21.96124 C104.201969,21.4841176 104.447154,20.8082044 104.447154,19.93348 C104.447154,19.0587556 104.201969,18.3861557 103.711594,17.91566 C103.221218,17.4451643 102.657957,17.20992 102.021794,17.20992 C101.385631,17.20992 100.822369,17.4484776 100.331994,17.9256 C99.8416179,18.4027224 99.5964337,19.0786356 99.5964337,19.95336 C99.5964337,20.8280844 99.8416179,21.5006843 100.331994,21.97118 C100.822369,22.4416757 101.385631,22.67692 102.021794,22.67692 C102.657957,22.67692 103.221218,22.4383624 103.711594,21.96124 Z M97.6084337,24.02876 C96.6276821,22.968488 96.1373137,21.610035 96.1373137,19.95336 C96.1373137,18.296685 96.6276821,16.9349187 97.6084337,15.86802 C98.5891853,14.8011213 99.7852866,14.26768 101.196774,14.26768 C102.608261,14.26768 103.69171,14.7911814 104.447154,15.8382 L104.447154,14.38696 L107.846634,14.38696 L107.846634,25.48 L104.447154,25.48 L104.447154,23.86972 C103.625443,25.0360192 102.525427,25.61916 101.147074,25.61916 C99.7687201,25.61916 98.5891853,25.089032 97.6084337,24.02876 Z M114.423016,25.48 L111.023536,25.48 L111.023536,10.7688 L114.423016,10.7688 L114.423016,19.019 L117.862256,14.38696 L122.434656,14.38696 L117.683336,20.05276 L122.434656,25.48 L117.921896,25.48 L114.423016,21.04676 L114.423016,25.48 Z M123.444638,17.7268 C123.444638,16.7460484 123.862113,15.92435 124.697078,15.26168 C125.532042,14.59901 126.661877,14.26768 128.086618,14.26768 C129.511358,14.26768 130.661073,14.5923834 131.535798,15.2418 C132.410522,15.8912166 132.874384,16.779181 132.927398,17.90572 L129.448398,17.90572 C129.408637,17.5213714 129.276105,17.2596207 129.050798,17.12046 C128.82549,16.9812993 128.487533,16.91172 128.036918,16.91172 C127.14894,16.91172 126.704958,17.1834106 126.704958,17.7268 C126.704958,18.2171758 127.248339,18.5551324 128.335118,18.74068 C129.43515,18.9262276 130.435766,19.2111714 131.336998,19.59552 C131.800867,19.7810676 132.188523,20.0892045 132.499978,20.51994 C132.811433,20.9506755 132.967158,21.4774902 132.967158,22.1004 C132.967158,23.1341652 132.523175,23.9790567 131.635198,24.6351 C130.74722,25.2911433 129.627324,25.61916 128.275478,25.61916 C126.923631,25.61916 125.797109,25.3110231 124.895878,24.69474 C123.994646,24.0784569 123.504278,23.1672994 123.424758,21.96124 L126.903758,21.96124 C126.996531,22.6371634 127.473647,22.97512 128.335118,22.97512 C128.73272,22.97512 129.060736,22.8823476 129.319178,22.6968 C129.577619,22.5112524 129.706838,22.2726948 129.706838,21.98112 C129.706838,21.6895452 129.491473,21.4576142 129.060738,21.28532 C128.630002,21.1130258 128.109814,20.9672406 127.500158,20.84796 C126.890501,20.7286794 126.277541,20.5795809 125.661258,20.40066 C125.044975,20.2217391 124.521473,19.9102889 124.090738,19.4663 C123.660002,19.0223111 123.444638,18.4424836 123.444638,17.7268 Z" id="Chileleaks" fill="#111111"></path>
        </g>
    </g>
</svg>