<svg id="Capa_1" data-name="Capa 1" xmlns="http://www.w3.org/2000/svg" viewBox="0 0 240 80"><defs><style>.cls-1{fill:#858585;}</style></defs><title>Mesa de trabajo 1</title><g id="layer1"><g id="g5292"><g id="g5187"><path id="path5176" class="cls-1" d="M25.57,66.19a13.86,13.86,0,0,0,13.57-14.1V50.23H33.8v1.86a8.41,8.41,0,0,1-8.23,8.56,8.41,8.41,0,0,1-8.23-8.56V50.23H12v1.86a13.86,13.86,0,0,0,13.57,14.1"/><path id="path5179" class="cls-1" d="M22.94,38.62H12v5.47H22.94Z"/><path id="path5182" class="cls-1" d="M39.14,38.62H28.28v5.47H39.14Z"/><path id="path5185" class="cls-1" d="M22.94,20.79l8.43,6.28H12v5.32l25.53,0h1.66v-5.3L22.94,14.33Z"/></g><path id="path8733" class="cls-1" d="M133.32,29.78h5.06l7.48,17.65a26.21,26.21,0,0,1,1.31,4.11,27.63,27.63,0,0,1,1.22-4.11l7.37-17.65h4.66L147.26,60.65h-.58Zm63.76,9.06h4.51V34.63h-4.51Zm14.34,2.94h4.46l-.09,3.45a6.72,6.72,0,0,1,6.28-3.84c4.11,0,6.93,2.91,6.93,8v11h-4.46V49.69c0-2.65-1.24-4.2-3.84-4.2a4.45,4.45,0,0,0-4.82,4.78V60.34h-4.46Zm-6.67,9.28c0-3.4-2.08-5.78-5.4-5.78s-5.43,2.38-5.43,5.78,2.13,5.83,5.43,5.83,5.4-2.43,5.4-5.83m-15.42,0a10,10,0,1,1,10,9.68,9.7,9.7,0,0,1-10-9.68m-24.21,5.83,3-2.12a5.75,5.75,0,0,0,5,2.39c2.25,0,3.27-.75,3.27-2,0-1.5-1.37-1.72-4.51-2.6-2.74-.76-5.48-2-5.48-5.71s3-5.47,6.63-5.47a8.43,8.43,0,0,1,6.45,2.78l-2.61,2.56a5,5,0,0,0-3.84-1.81c-1.68,0-2.61.62-2.61,1.72,0,1.42,1.15,1.73,4.07,2.48s6.09,1.9,6.09,5.83c0,3.18-1.94,5.79-7.2,5.79-4.24,0-7.07-1.86-8.3-3.85m22-18.64h-4.51v3.14h4.51Zm-4.51,3.14v19h4.51V44Zm-19-3.14h-4.51v3.14h4.51Zm-4.51,3.14v19h4.51V44Zm-25.29,8.08a4.73,4.73,0,0,0-5-4.37,5.1,5.1,0,0,0-5.39,4.37ZM129.31,57a7.51,7.51,0,0,0,5.25-2l2.61,2.74a10.44,10.44,0,0,1-7.82,3c-6.36,0-10.47-4.11-10.47-9.68a9.61,9.61,0,0,1,9.9-9.67c6.31,0,9.89,4.68,9.58,11.18H123.43c.53,2.69,2.48,4.41,5.88,4.41M112.17,30h4.46V60.34h-4.46Zm-3.32,8.3h-4.5v3.14h4.5Zm-4.5,3.14v19h4.5V44ZM83.8,29.94h4.46V45.05a6.7,6.7,0,0,1,6.19-3.66c4.11,0,6.93,2.91,6.93,8v11H96.92V49.69c0-2.65-1.23-4.2-3.84-4.2a4.45,4.45,0,0,0-4.82,4.77V60.34H83.8ZM54.29,45.32A15.09,15.09,0,0,1,69.71,30c5.38,0,9.36,2,12,6l-3.57,2.56a9.6,9.6,0,0,0-8.44-4.33c-6.23,0-10.65,4.77-10.65,11.18s4.42,11.22,10.65,11.22a10.11,10.11,0,0,0,8.88-4.73l3.57,2.52c-2.6,4-6.84,6.41-12.45,6.41A15.13,15.13,0,0,1,54.29,45.32"/></g></g></svg>