<?xml version="1.0" encoding="utf-8"?>
<!-- Generator: Adobe Illustrator 21.1.0, SVG Export Plug-In . SVG Version: 6.00 Build 0)  -->
<svg version="1.1" id="Capa_1" xmlns="http://www.w3.org/2000/svg" xmlns:xlink="http://www.w3.org/1999/xlink" x="0px" y="0px"
	 viewBox="0 0 240 80" style="enable-background:new 0 0 240 80;" xml:space="preserve">
<style type="text/css">
	.st0{fill:#858585;}
</style>
<g>
	<path class="st0" d="M69.8,42.2c0-1,0-1.9,0-2.9c0-0.2,0.1-0.3,0.1-0.5c0.2-2.2,0.6-4.3,1.5-6.4c3.5-8,9.5-12.7,18.2-13.8
		c3-0.4,6.1-0.1,9.2-0.2c0.1,0,0.2,0,0.2,0.1c0,1.8,0,3.6,0,5.4c-2.4,0-4.7,0-7,0c-1.2,0-2.4,0.1-3.6,0.4
		c-9.1,1.9-14.9,10.8-12.9,19.9c1.7,7.9,8.5,13.2,16.6,13.2c4.5,0,9,0,13.4,0c2,0,3.8-1.7,3.7-3.8c-0.1-8.8,0-17.6,0-26.5
		c0-0.2,0-0.4,0-0.5c0-0.8,0.6-1.3,1.4-1.2c0.6,0,0.9,0.4,1.1,0.9c4.4,7.6,8.9,15.3,13.3,22.9c1.3,2.3,2.7,4.6,4,6.9
		c0.7,1.1,1.7,1.7,3,1.6c1.4-0.1,2.4-1,2.8-2.3c0.1-0.4,0.1-0.9,0.1-1.4c0-8.9,0-17.8,0-26.7c0-0.3,0-0.6,0-0.8
		c0.1-0.5,0.4-0.9,0.9-1c0.5-0.1,1,0,1.4,0.4c0.1,0.2,0.2,0.3,0.3,0.5c3.8,6.5,7.5,13,11.3,19.5c2,3.4,3.9,6.7,5.9,10.1
		c1,1.7,3,2.2,4.5,1.2c1.1-0.7,1.5-1.8,1.5-3c0-11.7,0-23.3,0-35c0-0.3,0-0.5,0-0.8c1.8,0,3.6,0,5.4,0c0,0.2,0,0.3,0,0.4
		c0,12,0,24,0,36c0,3.6-2.5,6.9-6.1,7.8c-0.6,0.2-1.2,0.2-1.8,0.4c-0.3,0-0.6,0-1,0c-0.1,0-0.2-0.1-0.3-0.1c-3-0.3-5.1-1.9-6.6-4.4
		c-3.1-5.5-6.3-10.9-9.5-16.4c-0.1-0.2-0.3-0.4-0.4-0.6c0,0-0.1,0-0.1,0c0,0.2,0,0.4,0,0.6c0,4.1,0,8.3,0,12.4
		c0,3.9-2.5,7.2-6.3,8.2c-0.5,0.1-1.1,0.2-1.7,0.3c-0.3,0-0.6,0-0.8,0c-0.1,0-0.1-0.1-0.2-0.1c-3.1-0.3-5.3-2-6.9-4.7
		c-3.1-5.4-6.3-10.8-9.4-16.3c-0.1-0.2-0.2-0.4-0.3-0.6c-0.1,0.3-0.1,0.5-0.1,0.7c0,4.3,0,8.6-0.1,12.8c-0.1,3.6-2.2,6.4-5.5,7.4
		c-1,0.3-2,0.4-3,0.4c-4.9,0-9.8,0-14.7,0c-0.6,0-1.2,0-1.8-0.1c-9.8-1-17.6-8.1-19.6-17.7C70.1,44.2,70,43.2,69.8,42.2z"/>
	<path class="st0" d="M99.2,25.9c0,1.8,0,3.6,0,5.4c-0.3,0-0.5,0-0.7,0c-2.1,0-4.2,0-6.3,0c-4.9,0-9.1,3.8-9.4,8.4
		c-0.4,5.2,3,9.6,8,10.3c0.5,0.1,1,0.1,1.4,0.1c2.7,0,5.4,0,8.1,0c1.3,0,1.8-0.5,1.8-1.8c0-7.2,0-14.4,0-21.6c0-3.8,2.4-7,5.9-8.1
		c3.7-1.1,7.6,0.4,9.6,3.8c3.3,5.6,6.5,11.1,9.7,16.7c0.1,0.2,0.2,0.4,0.5,0.6c0-0.2,0-0.4,0-0.6c0-4.2,0-8.3,0-12.5
		c0-4.1,2.7-7.3,6.6-8.2c3.5-0.8,7.1,0.9,8.9,4c2.1,3.6,4.2,7.3,6.4,10.9c1.1,1.9,2.3,3.9,3.4,5.8c0.1,0.2,0.2,0.3,0.4,0.5
		c0-7.1,0-14.1,0-21.2c1.8,0,3.6,0,5.5,0c0,0.2,0,0.4,0,0.6c0,11.7,0,23.4,0,35.2c0,0.9-0.3,1.4-1,1.5c-0.6,0.2-1.1-0.1-1.5-0.9
		c-5.7-9.9-11.4-19.7-17.1-29.6c-0.6-1.1-1.5-1.8-2.8-1.8c-1.8-0.1-3.3,1.3-3.3,3.2c0,9.1,0,18.3,0,27.4c0,0.2,0,0.4,0,0.7
		c-0.1,0.6-0.5,1-1.1,1.1c-0.6,0.1-1-0.1-1.3-0.6c-0.9-1.5-1.7-3-2.6-4.5c-4.9-8.5-9.8-16.9-14.7-25.4c-1.3-2.3-4.2-2.4-5.5-0.3
		c-0.4,0.7-0.5,1.4-0.5,2.2c0,8.7,0,17.5,0,26.2c0,0.3,0,0.7-0.1,1c-0.1,0.6-0.7,1.1-1.3,1.1c-5.2,0-10.3,0.2-15.5-0.1
		c-3.8-0.2-7-1.9-9.6-4.8c-2.8-3.1-4.2-6.8-3.9-11c0.5-7.1,5.8-12.4,12-13.5c1.2-0.2,2.4-0.2,3.5-0.3C94.9,25.9,97,25.9,99.2,25.9z"
		/>
</g>
</svg>
