<svg id="Capa_1" data-name="Capa 1" xmlns="http://www.w3.org/2000/svg" viewBox="0 0 240 80"><defs><style>.cls-1{fill:#fff;}.cls-2{fill:#858585;}</style></defs><title>Mesa de trabajo 1 copia 6</title><path class="cls-1" d="M179.14,32.82c-3,0-5.95,0-8.9,0a16.79,16.79,0,0,0-1.88.11,3.22,3.22,0,0,0-3.12,3,12.85,12.85,0,0,0-.09,2.15,3.34,3.34,0,0,0,2.13,3.31,1.12,1.12,0,0,1,.18.1,17,17,0,0,0-1.18,1.66,1.79,1.79,0,0,1-2,1.07s-.09,0-.15,0v3h5.8a1,1,0,0,0,0-.33,5.13,5.13,0,0,1,1.6-4.51c.05-.05.07-.13.12-.17a.59.59,0,0,1,.27-.16c.62,0,1.24,0,1.87,0v2.33H172.1v2.82h7v-3h-1.25V35.93h1.26Zm-16.08,8.86h-3.85v2.64h-4.27v-3h2.95V38.58h-2.95V35.71h4.26V38h3.86v-5.2H149.53v3l1.27.06v8.24h-1.26v3h13.52Zm-24.44-8.49a1.83,1.83,0,0,0-.23-.07,25.69,25.69,0,0,0-8.2-.37,5,5,0,0,0-4.64,4.39,15.55,15.55,0,0,0,0,5.73,4.85,4.85,0,0,0,4.79,4.37,49.66,49.66,0,0,0,5.59,0,26.52,26.52,0,0,0,2.68-.34V41.69H134.8c0,.72,0,1.4,0,2.08,0,.38-.12.5-.49.5s-1,.06-1.55.07c-1.82.07-2.87-.61-3-2.24a26.84,26.84,0,0,1,0-4.3,2,2,0,0,1,1.5-1.9,9.94,9.94,0,0,1,3.61,0V38h3.81ZM195.78,38V32.81H180.65V38h3.55V35.5h2v8.69H184.6v3h7.27v-3h-1.58V35.51h2V38Zm-74.54,5.46c-.17-.25-.25-.35-.31-.45q-3.18-4.86-6.34-9.71a.92.92,0,0,0-.93-.52c-1.14,0-2.27,0-3.4,0-.16,0-.31,0-.44,0v1.81h1.64V45.39h-1.65V47.1h5.43V45.39h-1.83V35.33l.4.59c2.36,3.61,4.71,7.22,7.08,10.83.1.15.25.37.39.38.62,0,1.25,0,1.92,0V34.63h1.55V32.86h-5.31v1.8h1.8Zm-51.75-3c-.07-1.25-.08-2.46-.21-3.65A4.06,4.06,0,0,0,66,33a13.45,13.45,0,0,0-5.25-.06,4.79,4.79,0,0,0-4,3.73A13.63,13.63,0,0,0,56.6,43a4.87,4.87,0,0,0,4.11,4.09,16.93,16.93,0,0,0,7.05-.23C69,46.57,69,46.55,69,45.31v-3H66.82c0,.87,0,1.71,0,2.55,0,.36-.11.54-.47.55a32.4,32.4,0,0,1-4.29.11,3.89,3.89,0,0,1-3.41-5ZM41.68,47s.08.06.12.06c2.71,0,5.43.1,8.14-.06,3-.18,4.41-1.57,4.81-4.54a31,31,0,0,0,.13-4,8.39,8.39,0,0,0-.22-1.65c-.56-2.6-2-3.92-4.68-4s-5.39-.05-8.09-.07a.84.84,0,0,0-.2,0v1.74H43.3V45.34H41.68Zm29.1-4.62c0,1.38,0,2.7,0,4,0,.11.22.3.37.33a33.09,33.09,0,0,0,3.94.48,28.21,28.21,0,0,0,4.5-.31A2.73,2.73,0,0,0,82,44.74a9.74,9.74,0,0,0,.16-2.29,2.82,2.82,0,0,0-1.88-2.82,16.17,16.17,0,0,0-2.18-.55c-1.29-.25-2.6-.39-3.86-.7-1-.24-1.33-1-1.25-2.11a1.65,1.65,0,0,1,1.45-1.74,12.38,12.38,0,0,1,4.66.1c.13,0,.3.27.31.42,0,.73,0,1.46,0,2.19h2V33.4a16.4,16.4,0,0,0-8.65-.25,2.87,2.87,0,0,0-2,2.55,11.62,11.62,0,0,0,0,1.77A2.8,2.8,0,0,0,73,40.2a20.74,20.74,0,0,0,2.21.49c1.11.21,2.24.32,3.34.58s1.34.74,1.35,1.78c0,.16,0,.33,0,.49a1.77,1.77,0,0,1-1.61,1.91,15.89,15.89,0,0,1-4.77,0c-.51,0-.7-.23-.66-.77,0-.74,0-1.49,0-2.25ZM96,39.87c.14,1.12.21,2.15.41,3.14a4.84,4.84,0,0,0,3.83,4.11,11.69,11.69,0,0,0,4.45.09A4.93,4.93,0,0,0,109,43.16a13.71,13.71,0,0,0,0-6.4,4.87,4.87,0,0,0-4.19-4,12.08,12.08,0,0,0-4.24,0,4.77,4.77,0,0,0-4,3.83C96.26,37.71,96.17,38.84,96,39.87Zm44.65-4h1.5v8.27h-1.49v3h7.15v-3H146.3V35.9h1.52V32.81h-7.16ZM95.2,37.23c0-1.19,0-2.34,0-3.48,0-.37-.13-.5-.46-.58A19,19,0,0,0,89,32.63c-2.76.17-4.34,1.36-5,3.85a13.62,13.62,0,0,0,0,7.25,4.51,4.51,0,0,0,3.92,3.45,17.86,17.86,0,0,0,6.31-.29c1-.19,1-.2,1-1.14V42.41H93.07v2.81a11.62,11.62,0,0,1-3.93.27,3.29,3.29,0,0,1-3.08-2.91A14,14,0,0,1,86,37.7c.3-2,1.2-3,3-3.18a23.28,23.28,0,0,1,3.81.19c.1,0,.26.26.26.41,0,.69,0,1.39,0,2.11Zm-60.87,5.5c-.14-1.27-.24-2.46-.42-3.63a1.48,1.48,0,0,0-1.27-1.25,9.47,9.47,0,0,0-2.19-.1,2.07,2.07,0,0,0-2.1,2c-.14,1.58-.14,3.18-.15,4.77a3.9,3.9,0,0,0,.25,1.2A1.72,1.72,0,0,0,29.93,47c1.28.08,2.57,0,3.85,0,.12,0,.32-.23.32-.37,0-.73,0-1.47,0-2.2,0-.12-.14-.33-.23-.34a6.64,6.64,0,0,0-1.18,0c-.1,0-.24.24-.25.38,0,.35,0,.72,0,1.07,0,.14-.16.37-.26.38-1.4.15-2.16.2-2.26-1.61V44.1c-.09-1.37-.09-1.37,1.26-1.37Zm5.17,2.88a2.81,2.81,0,0,0-.36,0c-.82,0-.82,0-.82-.85V32.88H35.41v1.4l.32,0c.84,0,.8,0,.8.84v9.27c0,1.08,0,1.08-1,1.17l-.1.06V47H39.5Z"/><path class="cls-2" d="M203.22,47.49l-1.48-.2A5,5,0,0,1,197.1,43a14.35,14.35,0,0,1,0-6.05,5,5,0,0,1,4.63-4.28,16.71,16.71,0,0,1,5.73.11,4.78,4.78,0,0,1,3.93,3.76,13.91,13.91,0,0,1,.05,6.51,5,5,0,0,1-4.65,4.2l-1.41.21Zm4.35-7.3c-.06-.83-.08-1.46-.14-2.08A2.41,2.41,0,0,0,205,35.66a8.76,8.76,0,0,0-2,.08,2,2,0,0,0-1.77,1.65,12.23,12.23,0,0,0,0,5.18,2.23,2.23,0,0,0,2,1.79,8.52,8.52,0,0,0,1.82,0,2.21,2.21,0,0,0,2.15-2C207.47,41.6,207.5,40.79,207.57,40.19Z"/><path class="cls-2" d="M179.14,32.82v3.11h-1.26v8.29h1.25v3h-7V44.42h1.69V42.09c-.63,0-1.25,0-1.87,0a.59.59,0,0,0-.27.16c-.05,0-.07.12-.12.17a5.13,5.13,0,0,0-1.6,4.51,1,1,0,0,1,0,.33h-5.8v-3c.06,0,.11,0,.15,0a1.79,1.79,0,0,0,2-1.07,17,17,0,0,1,1.18-1.66,1.12,1.12,0,0,0-.18-.1,3.34,3.34,0,0,1-2.13-3.31,12.85,12.85,0,0,1,.09-2.15,3.22,3.22,0,0,1,3.12-3,16.79,16.79,0,0,1,1.88-.11C173.19,32.81,176.13,32.82,179.14,32.82Zm-5.36,2.91c-1.09,0-2.13,0-3.17,0A1.28,1.28,0,0,0,169.24,37c-.19,1.25.14,2.18.87,2.43a.88.88,0,0,0,.26.06h3.41Z"/><path class="cls-2" d="M163.06,41.68V47.2H149.54v-3h1.26V35.93l-1.27-.06v-3h13.53V38H159.2V35.71h-4.26v2.87h2.95v2.74h-2.95v3h4.27V41.68Z"/><path class="cls-2" d="M138.62,33.19V38h-3.81V35.86a9.94,9.94,0,0,0-3.61,0,2,2,0,0,0-1.5,1.9,26.84,26.84,0,0,0,0,4.3c.18,1.63,1.23,2.31,3,2.24.52,0,1-.07,1.55-.07s.51-.12.49-.5c0-.68,0-1.36,0-2.08h3.81v5.17a26.52,26.52,0,0,1-2.68.34,49.66,49.66,0,0,1-5.59,0,4.85,4.85,0,0,1-4.79-4.37,15.55,15.55,0,0,1,0-5.73,5,5,0,0,1,4.64-4.39,25.69,25.69,0,0,1,8.2.37A1.83,1.83,0,0,1,138.62,33.19Z"/><path class="cls-2" d="M195.78,38h-3.49V35.51h-2v8.68h1.58v3H184.6v-3h1.55V35.5h-2V38h-3.55V32.81h15.13Z"/><path class="cls-2" d="M121.24,43.49V34.66h-1.8v-1.8h5.31v1.77H123.2V47.15c-.67,0-1.3,0-1.92,0-.14,0-.29-.23-.39-.38-2.37-3.61-4.72-7.22-7.08-10.83l-.4-.59V45.39h1.83V47.1h-5.43V45.39h1.65V34.66h-1.64V32.85c.13,0,.28,0,.44,0,1.13,0,2.26,0,3.4,0a.92.92,0,0,1,.93.52q3.15,4.86,6.34,9.71C121,43.14,121.07,43.24,121.24,43.49Z"/><path class="cls-2" d="M70.78,42.39h2.1c0,.76,0,1.51,0,2.25,0,.54.15.72.66.77a15.89,15.89,0,0,0,4.77,0,1.77,1.77,0,0,0,1.61-1.91c0-.16,0-.33,0-.49,0-1-.33-1.55-1.35-1.78s-2.23-.37-3.34-.58A20.74,20.74,0,0,1,73,40.2a2.8,2.8,0,0,1-2.2-2.73,11.62,11.62,0,0,1,0-1.77,2.87,2.87,0,0,1,2-2.55,16.4,16.4,0,0,1,8.65.25v3.84h-2c0-.73,0-1.46,0-2.19,0-.15-.18-.4-.31-.42a12.38,12.38,0,0,0-4.66-.1A1.65,1.65,0,0,0,73,36.27c-.08,1.14.27,1.87,1.25,2.11,1.26.31,2.57.45,3.86.7a16.17,16.17,0,0,1,2.18.55,2.82,2.82,0,0,1,1.88,2.82A9.74,9.74,0,0,1,82,44.74a2.73,2.73,0,0,1-2.41,2.18,28.21,28.21,0,0,1-4.5.31,33.09,33.09,0,0,1-3.94-.48c-.15,0-.37-.22-.37-.33C70.77,45.09,70.78,43.77,70.78,42.39Z"/><path class="cls-2" d="M140.66,35.91v-3.1h7.16V35.9H146.3v8.26h1.52v3h-7.15v-3h1.49V35.91Z"/><path class="cls-2" d="M95.2,37.23H93.08c0-.72,0-1.42,0-2.11,0-.15-.16-.41-.26-.41A23.28,23.28,0,0,0,89,34.52c-1.81.16-2.71,1.18-3,3.18a14,14,0,0,0,.08,4.88,3.29,3.29,0,0,0,3.08,2.91,11.62,11.62,0,0,0,3.93-.27V42.41H95.2v3.34c0,.94,0,1-1,1.14a17.86,17.86,0,0,1-6.31.29A4.51,4.51,0,0,1,84,43.73a13.62,13.62,0,0,1,0-7.25c.67-2.49,2.25-3.68,5-3.85a19,19,0,0,1,5.77.54c.33.08.47.21.46.58C95.18,34.89,95.2,36,95.2,37.23Z"/><path class="cls-2" d="M39.5,45.61V47H35.41V45.65l.1-.06c1-.09,1-.09,1-1.17V35.15c0-.88,0-.84-.8-.84l-.32,0v-1.4h2.91V44.72c0,.82,0,.81.82.85A2.81,2.81,0,0,1,39.5,45.61Z"/><path class="cls-1" d="M207.57,40.19c-.07.6-.1,1.41-.25,2.2a2.21,2.21,0,0,1-2.15,2,8.52,8.52,0,0,1-1.82,0,2.23,2.23,0,0,1-2-1.79,12.23,12.23,0,0,1,0-5.18,2,2,0,0,1,1.77-1.65,8.76,8.76,0,0,1,2-.08,2.41,2.41,0,0,1,2.39,2.45C207.49,38.73,207.51,39.36,207.57,40.19Z"/><path class="cls-1" d="M173.78,35.73v3.74h-3.41a.88.88,0,0,1-.26-.06c-.73-.25-1.06-1.18-.87-2.43a1.28,1.28,0,0,1,1.37-1.23C171.65,35.72,172.69,35.73,173.78,35.73Z"/><path class="cls-2" d="M66.83,44.84c0,.36-.11.54-.47.55a32.4,32.4,0,0,1-4.29.11,3.89,3.89,0,0,1-3.41-5H69.49c-.07-1.25-.08-2.46-.21-3.65A4.06,4.06,0,0,0,66,33a13.45,13.45,0,0,0-5.25-.06,4.79,4.79,0,0,0-4,3.73A13.63,13.63,0,0,0,56.6,43a4.87,4.87,0,0,0,4.11,4.09,16.93,16.93,0,0,0,7.05-.23C69,46.57,69,46.55,69,45.31v-3H66.82C66.82,43.16,66.8,44,66.83,44.84ZM61.34,34.65a6.1,6.1,0,0,1,2.88-.06c1.82.39,2.84,1.8,2.85,3.95h-8.4A3.54,3.54,0,0,1,61.34,34.65Z"/><path class="cls-2" d="M54.88,38.49a8.39,8.39,0,0,0-.22-1.65c-.56-2.6-2-3.92-4.68-4s-5.39-.05-8.09-.07a.84.84,0,0,0-.2,0v1.74H43.3V45.34H41.68V47s.08.06.12.06c2.71,0,5.43.1,8.14-.06,3-.18,4.41-1.57,4.81-4.54A31,31,0,0,0,54.88,38.49ZM52.62,41a9.55,9.55,0,0,1-.33,2.12,2.8,2.8,0,0,1-2.66,2.22c-1.35.09-2.71,0-4.1,0V34.55h0l0,0s0,0,0,0c1.36,0,2.73,0,4.08.08a2.83,2.83,0,0,1,2.61,2.16A12.28,12.28,0,0,1,52.62,41Z"/><path class="cls-2" d="M109,36.76a4.87,4.87,0,0,0-4.19-4,12.08,12.08,0,0,0-4.24,0,4.77,4.77,0,0,0-4,3.83c-.27,1.09-.36,2.22-.52,3.25.14,1.12.21,2.15.41,3.14a4.84,4.84,0,0,0,3.83,4.11,11.69,11.69,0,0,0,4.45.09A4.93,4.93,0,0,0,109,43.16,13.71,13.71,0,0,0,109,36.76Zm-2.23,6.06a3.07,3.07,0,0,1-2.9,2.66,9.94,9.94,0,0,1-2.67-.09,3.24,3.24,0,0,1-2.61-3,14.8,14.8,0,0,1,0-4.88,3.33,3.33,0,0,1,3.49-3.07,11.34,11.34,0,0,1,1.93.09,3.08,3.08,0,0,1,2.74,2.58c.21,1,.26,1.94.38,2.9C107,41,107,41.91,106.76,42.82Z"/><path class="cls-2" d="M33.88,44.05a6.64,6.64,0,0,0-1.18,0c-.1,0-.24.24-.25.38,0,.35,0,.72,0,1.07,0,.14-.16.37-.26.38-1.4.15-2.16.2-2.26-1.61V44.1c-.09-1.37-.09-1.37,1.26-1.37h3.17c-.14-1.27-.24-2.46-.42-3.63a1.48,1.48,0,0,0-1.27-1.25,9.47,9.47,0,0,0-2.19-.1,2.07,2.07,0,0,0-2.1,2c-.14,1.58-.14,3.18-.15,4.77a3.9,3.9,0,0,0,.25,1.2A1.72,1.72,0,0,0,29.93,47c1.28.08,2.57,0,3.85,0,.12,0,.32-.23.32-.37,0-.73,0-1.47,0-2.2C34.1,44.27,34,44.06,33.88,44.05Zm-3.94-3.69c.07-1.09.56-1.48,1.49-1.41a.94.94,0,0,1,1,.78,2.2,2.2,0,0,1,.06.37c.15,1.44.15,1.44-1.29,1.44H31C29.64,41.52,29.85,41.73,29.94,40.36Z"/></svg>