<svg id="Capa_1" data-name="Capa 1" xmlns="http://www.w3.org/2000/svg" viewBox="0 0 240 80"><defs><style>.cls-1{fill:#858585;}</style></defs><title>Mesa de trabajo 1 copia 2</title><path class="cls-1" d="M64.82,50.87a3.26,3.26,0,0,0,.37-1.59c0-2.75.07-5.5,0-8.24-.09-3-2.23-4-4.75-2.46A1.51,1.51,0,0,0,59.59,40c0,3.05,0,6.1,0,9.15,0,.89.15,1.72,1.21,2,.44.1.52.41.48.8s-.38.53-.75.53h-7.5c-.45,0-.79-.09-.8-.64s.31-.66.76-.7c1.25-.11,1.67-.92,1.67-2.06,0-3.2,0-6.39,0-9.59,0-.91-.25-1.71-1.28-1.95a.71.71,0,0,1-.63-.85c0-.46.4-.51.75-.58,1.71-.36,3.42-.7,5.12-1.08.63-.14,1,0,.92.68s0,1.17,0,2c1.28-.8,2.33-1.54,3.45-2.14a4.46,4.46,0,0,1,6.25,1.59c.41.62.65.74,1.24.27a21.35,21.35,0,0,1,2.21-1.55c3.91-2.35,7.66-.31,7.88,4.27-.4,1.81-.09,3.64-.17,5.46,0,1.33,0,2.66,0,4,0-2.49,0-5,0-7.49,0-.57-.19-1.19.18-1.73.28,2.38,0,4.77.13,7.16,0,1,.09,2.08.14,3.13-.15.29-.21.79-.68.58-.84-.38-1.79-.51-2.32-1.49a14.79,14.79,0,0,1-1.35-7c0-.65,0-1.38,1-.91-.11-.71-.9-.71-1.06-1,.52.72,0,1.78.06,2.77A19,19,0,0,1,76.44,50,1.81,1.81,0,0,1,74,51.51c1.89-.64,1.93-2.16,1.88-3.79-.06-2.19,0-4.39,0-6.58-.12-2.87-2-3.88-4.64-2.65-1.55.73-.8,2.06-1.08,3.12-.42.13-.54-.57-.89-.38s-.3.73-.19,1.09c.78,2.65-.49,5.12-.7,7.67-.07.81-.73,1-1.45.94s-1.11-.53-1.11-1.31c0-2.73,0-5.45,0-8.18,0,2.8,0,5.59,0,8.39C65.72,50.43,65.78,51.09,64.82,50.87Z"/><path class="cls-1" d="M92.8,36.2a7.93,7.93,0,1,1-8,7.74A7.92,7.92,0,0,1,92.8,36.2Z"/><path class="cls-1" d="M103.34,48.34v-.93c0-.44-.13-.94.54-1s.67.28.84.67a9.94,9.94,0,0,0,1.84,2.89,4.39,4.39,0,0,0,2,1.34,2.13,2.13,0,0,0,2.67-.74,2.24,2.24,0,0,0-.4-3,8.31,8.31,0,0,0-1.73-1.16A19.12,19.12,0,0,1,106,44.5c-1.65-1.36-2.68-3-2.14-5.23a5.5,5.5,0,0,1,4.58-4.22,8.3,8.3,0,0,1,1.93-.15c3.35.05,4.32,1,4.4,4.35,0,.44,0,.77-.5.93s-.71-.17-.9-.54a7.79,7.79,0,0,0-1.82-2.54c-1.24-1-2.65-1-3.46,0a2.24,2.24,0,0,0,.78,3.35c1,.68,2.2,1.17,3.31,1.75,2.62,1.35,3.69,3,3.48,5.4a5.88,5.88,0,0,1-4.55,5,9.56,9.56,0,0,1-6.3-.54,1.65,1.65,0,0,1-1.14-1.44C103.57,49.84,103.43,49,103.34,48.34Z"/><path class="cls-1" d="M123.51,46.92c.09.33.17.67.26,1,.52,2,1.14,2.37,3.11,2.06.4-.06.86-.4,1.09.3s0,.93-.59,1.16c-.86.38-1.7.84-2.58,1.18-2.92,1.12-5.56-.37-5.94-3.48a45.5,45.5,0,0,1-.13-5.23c0-1.85,0-3.7,0-5.54,0-.85-.14-1.32-1.14-1.26-.44,0-1.31.38-1.29-.43a1.42,1.42,0,0,1,1.34-1.37c.72,0,1.23-.17,1.06-1-.32-1.55.49-2.41,1.74-3.06.62-.32,1.19-.72,1.78-1.08.93.05,1,.67,1.09,1.44.06,1.1-.25,2.23.19,3.31.93.76,2,.25,3,.35.63.06,1.23,0,1.19.9s-.48.94-1.18,1c-1,.08-2.08-.38-3,.32-.44,1.23-.15,2.51-.19,3.76,0,1.88,0,3.77,0,5.66,0,.2-.08-.06,0,.12S123.46,47,123.51,46.92Z"/><path class="cls-1" d="M136.22,38.61a13.33,13.33,0,0,1,2.46-3,2.69,2.69,0,0,1,3.87.31,3,3,0,0,1-.94,4,1.7,1.7,0,0,1-2,0c-2.05-1.21-3.62-.33-3.66,2.06s0,4.7,0,7a1.9,1.9,0,0,0,1.93,2.18c.46,0,1.24-.21,1.2.69s-.87.63-1.37.63c-2.65,0-5.3,0-7.95,0-.45,0-1.07.25-1.21-.51s.4-.77.92-.86a1.7,1.7,0,0,0,1.5-1.92c0-3.24,0-6.49,0-9.74a1.7,1.7,0,0,0-1.26-1.82c-.44-.13-.9-.26-.82-.87s.64-.51,1.05-.6c1.51-.34,3-.6,4.53-1,1.09-.3,1.58-.16,1.48,1.11A4.23,4.23,0,0,0,136.22,38.61Z"/><path class="cls-1" d="M213.5,37.73c-.48,2.3-1.65,2.88-3.63,1.79-1.53-.84-3.21.2-3.22,2.17a46.75,46.75,0,0,0,.25,8.93c-1-.09-.59-.93-.78-1.44,0-2.52,0-5,0-7.56v1.47c0,2.08,0,4.17,0,6.25.07,1.4-.88,1.66-1.94,1.68s-2,.06-2-1.38c0-3.49,0-7,0-10.47,0,3.45,0,6.89,0,10.33-.16.47.07,1.25-.87,1.07a8.68,8.68,0,0,0,.4-3.54c0-2.35,0-4.69,0-7,0-1.11-.17-2.12-1.48-2.43a.73.73,0,0,1-.63-.86c.05-.49.44-.46.77-.53,1.71-.36,3.42-.7,5.12-1.13.9-.22,1.16.07,1.1.94s0,1.65,0,2.81c1.15-1.21,1.72-2.44,2.79-3.24a2.46,2.46,0,0,1,4.1,1.24A3,3,0,0,0,213.5,37.73Z"/><path class="cls-1" d="M47.73,37.59c0,3.75,0,7.49,0,11.23,0,1.43.42,2.45,2,2.58.38,0,.87.07.76.66s-.5.4-.84.41H42.78c-.33,0-.75.08-.84-.4s.35-.64.75-.67c1.52-.13,2-1.07,2-2.46q0-9.64,0-19.31c0-1.32-.27-2.41-1.92-2.46-.31,0-.6-.15-.62-.52s.3-.54.66-.62c1.27-.29,2.54-.54,3.78-.92,1-.31,1.18,0,1.17,1,0,3.84,0,7.68,0,11.52Z"/><path class="cls-1" d="M64.82,50.87c.93-.19.74-.93.74-1.55,0-2.94,0-5.88.31-8.83v4.73c0,1.4,0,2.8,0,4.19,0,.8.31,1.18,1.15,1.21s1.07-.47.93-1.14c-.26-1.28.41-2.4.67-3.55a6.8,6.8,0,0,0-.11-3.51c-.32-1.14-.22-1.82,1.11-2,.4.25-.09.95.44,1.23,0,2.54.16,5.08.09,7.62,0,1.09.2,1.72,1.31,1.88.45.06.74.26.69.78s-.57.57-1,.57H64.41c-.42,0-.94.17-1-.51s.38-.8.9-.88A3.14,3.14,0,0,0,64.82,50.87Z"/><path class="cls-1" d="M74,51.51c2.22-.34,2.19-.81,2.36-3.41a34,34,0,0,0-.19-8.24c.33.69,1.19.72,1.54,1.24a2.66,2.66,0,0,1,0,2.22c-.7-.38-.22-1.09-.6-1.48-.63.28-.5.85-.36,1.27A9.36,9.36,0,0,1,77,45.63c.06.81-.41,1.88,1,2.14.1,0,.25.36.21.5-.6,2,1.38,1.87,2.17,2.71a4,4,0,0,0,.57-.37l.29.29c.46.44,1.69.19,1.49,1s-1.22.32-1.86.31A53.86,53.86,0,0,1,74,52.11.53.53,0,0,1,74,51.51Z"/><path class="cls-1" d="M202.36,49.71c.17,1.24,1.14.83,1.87.89.89.08,1.58-.17,1.73-1.19.1-.14.2-.13.3,0,.28.37.18.94.64,1.22l.25.24a3.78,3.78,0,0,0,1.83.5c.31,0,.67,0,.68.41s-.4.48-.75.48h-8.64c-.3,0-.64,0-.7-.38s.3-.42.55-.55.81-.11,1-.53l.21-.22c.47-.1.53-.54.73-.86C202.17,49.57,202.26,49.58,202.36,49.71Z"/><path class="cls-1" d="M201.13,50.79c-.15.69-1,.48-1.39,1.19h9.92c-.9-.73-2-.23-2.51-1.12.63.1,1.26.22,1.9.29.43.05.77.13.77.67s-.35.65-.78.65h-8.92c-.43,0-.8,0-.83-.6s.23-.68.7-.75A9.78,9.78,0,0,0,201.13,50.79Z"/><path class="cls-1" d="M123.51,46.92c-.16.36.18.91-.53,1.19.2-3.64.28-7.21.12-10.78,0-.17.3,0,.41.16Q123.71,42.2,123.51,46.92Z"/><path class="cls-1" d="M74,52.11h8.51l.06-.3-1.36-.91c.38.08.77.17,1.16.22s.65.39.59.85-.41.5-.77.5H74.37A.39.39,0,0,1,74,52.11Z"/><path class="cls-1" d="M80.61,40.32V50h-.32c0-3.13,0-6.26,0-9.4,0-.16.19-.32.29-.49A.13.13,0,0,1,80.61,40.32Z"/><path class="cls-1" d="M123.51,34.93c-.74-.78-.29-1.73-.31-2.59a2.23,2.23,0,0,0-1-2.16h0c.41-.12.74-.62,1.26-.27A29,29,0,0,1,123.51,34.93Z"/><path class="cls-1" d="M213.5,37.73c-.43-.31-.43-.63,0-.94A.83.83,0,0,1,213.5,37.73Z"/><path class="cls-1" d="M123.49,29.91l-1.26.27C122.61,29.93,122.87,29.09,123.49,29.91Z"/><path class="cls-1" d="M179.14,50.16c-1.79,0-2-1.14-2-2.61,0-6.89,0-13.78,0-20.67,0-.35,0-.7,0-1.05s-.22-.61-.67-.53c-2.06.41-4.12.79-6.18,1.19-.37.07-.65.23-.64.68a.63.63,0,0,0,.66.66c1.72.1,1.92,1.26,1.88,2.63a29.81,29.81,0,0,0,0,3c.07,1.1-.13,1.67-1.46,1.48a8.81,8.81,0,0,0-3.69.45,9.46,9.46,0,0,0-6.15,12.89c1.88,4.21,6.36,5.64,10.2,3.24.28-.17.53-.48.87-.34.78.3-.52,1.79.9,1.6,2.12-.3,4.21-.79,6.32-1.19a.7.7,0,0,0,.66-.82C179.83,50.28,179.51,50.16,179.14,50.16Zm-7-10.34c-.09,1.34,0,2.69,0,4s0,3,0,4.49a1.33,1.33,0,0,1-1.26,1.53A3.8,3.8,0,0,1,167,48.26c-2-2.52-2-7.62-.09-10.19.83-1.1,1.9-1.89,3.34-1.41A2.77,2.77,0,0,1,172.18,39.82Z"/><path class="cls-1" d="M165,44.88V41.7h.11v3.18Z"/><path class="cls-1" d="M59,49.91V39.61h.15V50Z"/><path class="cls-1" d="M52.86,51.9c2.65,0,5.3,0,8,0Z"/><path class="cls-1" d="M189.28,34.89a9.1,9.1,0,0,0-9.2,9.53c0,4.87,3.82,8.52,8.91,8.56,5.37,0,9.08-3.89,9-9.59A8.37,8.37,0,0,0,189.28,34.89Zm-.38,17.79c-.1,0-.24-.07-.41-.12.33-.22.83-.22.87-.07C189.47,52.87,189.07,52.64,188.9,52.68Zm3-3.09c-.93,2.16-2.95,2.48-4.45.67a4.61,4.61,0,0,1-.76-1.28,15.56,15.56,0,0,1-.52-10c.37-1.29,1-2.52,2.52-2.62s2.35,1,2.93,2.34a14.48,14.48,0,0,1,.92,5.86A13.06,13.06,0,0,1,191.88,49.59Z"/><path class="cls-1" d="M159.71,50c-.17-.45-.45-.42-.84-.32-1.32.37-1.7-.44-1.8-1.52,0-.65,0-1.3,0-2a51.11,51.11,0,0,0-.18-6.89A5,5,0,0,0,150.92,35a13.88,13.88,0,0,0-6.57,3.09c-1.3,1.07-1.08,2.32.43,3.07s2.19.21,2.8-1.55c.42-1.2.67-2.71,2.3-2.8s1.83,1.43,2.33,2.53a1.22,1.22,0,0,1,.09-.27.24.24,0,0,1,.08-.09s0,0,0-.06,0,0,0,.06.15,0,.15.11c0,.47.19,1-.28,1.35.11,1.14-.51,1.69-1.51,2.06-1.82.68-3.63,1.42-5.43,2.15a3.3,3.3,0,0,0-2.17,3.56,4.94,4.94,0,0,0,2.48,4c2,1.31,3.81.65,5.49-.67.77-.6,1.3-.86,2,.21a2.31,2.31,0,0,0,2.73,1.1A30.58,30.58,0,0,0,159.44,51C159.91,50.79,159.86,50.43,159.71,50Zm-7.54-1.18c0,1-1.3,1.48-2.32,1a3,3,0,0,1-.74-4.72,27.28,27.28,0,0,1,3.08-2C152.19,45.28,152.23,47.06,152.17,48.84Z"/><path class="cls-1" d="M109.42,52.57a.91.91,0,0,1-1,0A.89.89,0,0,1,109.42,52.57Z"/><path class="cls-1" d="M125.34,50.38h1.77A2,2,0,0,1,125.34,50.38Z"/><path class="cls-1" d="M129.06,52a94.32,94.32,0,0,0,9.5-.4V52Z"/><path class="cls-1" d="M131.31,49.91V38.71h.15V50Z"/><path class="cls-1" d="M29.92,39.83a2.79,2.79,0,0,0-.12.48Q29.86,40.1,29.92,39.83Z"/><path class="cls-1" d="M40.31,40.08a5.89,5.89,0,0,0-8-4.59c-4.68,1.84-7.22,7.92-5.3,12.64a7.07,7.07,0,0,0,6,4.78c2.8.33,4.84-1.2,6.66-3.09.28-.29.56-.6.21-1s-.58-.11-.89.07c-4.06,2.47-6.83,1.71-9-2.46-.93-.93-.64-2.11-.66-3.22,0-.51.35-.64.8-.66l9.75-.58C40.67,41.49,40.41,40.72,40.31,40.08Zm-4.44,1.5a34.73,34.73,0,0,1-5.77,0c-1.66-.2-.43-1.11-.18-1.73s.48-1,.78-1.43a3.52,3.52,0,0,1,3.15-1.89c1.79.06,2.55,1.31,3.2,2.7S37.32,41.5,35.87,41.58Z"/><path class="cls-1" d="M202.36,49.71h-.29V39h.29Z"/><path class="cls-1" d="M206.26,49.4H206v-8h.3Z"/><path class="cls-1" d="M206,38.55V35.19A5.72,5.72,0,0,1,206,38.55Z"/><path class="cls-1" d="M44.93,49.61V28.82h.14V49.66Z"/></svg>