<svg id="Capa_1" data-name="Capa 1" xmlns="http://www.w3.org/2000/svg" viewBox="0 0 240 80"><defs><style>.cls-1{fill:#858585;}.cls-2{fill:#fff;}</style></defs><title>Mesa de trabajo 1 copia 7</title><path class="cls-1" d="M122.61,52.88h-9v2.53h5c3.46,0,3.46,0,3,3.74h-8v2.61h9v4.11H108.88v-17h2.22c3.46,0,6.91,0,10.37,0,.8,0,1.22.2,1.16,1.1S122.61,51.83,122.61,52.88Z"/><path class="cls-1" d="M62.31,65.85V49h13.6v3.9H67.12v2.5h8v3.79H67.15v2.67c2.54,0,5.07.06,7.58,0,1.2-.05,1.55.39,1.47,1.49-.07.82,0,1.65,0,2.58Z"/><path class="cls-1" d="M91,50.85l-2.17,3c-1.77-.46-3.33-1-4.93-1.24-.49-.08-1.1.55-1.66.85.44.45.8,1.11,1.34,1.31,1.34.51,2.79.72,4.14,1.2,2.81,1,3.82,2.45,3.72,5a5,5,0,0,1-4.11,4.8c-3.93,1.07-7.47.16-10.85-2.42l2.44-2.87c1.86.6,3.5,1.13,5.13,1.64a1,1,0,0,0,.65.06c.62-.28,1.56-.49,1.75-1,.36-.94-.66-1.18-1.33-1.4-1.28-.41-2.62-.67-3.9-1.1-2.78-1-4-2.53-3.93-4.89a5.31,5.31,0,0,1,4.41-5A10.82,10.82,0,0,1,91,50.85Z"/><path class="cls-1" d="M136.59,59.89l3.34,2.36c-1.33,2.83-5.22,4.54-8.76,3.93a8.72,8.72,0,0,1-7.45-7.84,9,9,0,0,1,16.16-6.22l-3.38,2.65c-3.21-2.3-5.09-2.44-6.74-.56a5.15,5.15,0,0,0,.14,6.51C131.58,62.41,133.78,62.17,136.59,59.89Z"/><path class="cls-1" d="M172.21,61.73c2.48,0,4.75,0,7,0,1,0,1.28.26,1.28,1.24,0,3,0,3-3,3h-9.92v-17h4.66Z"/><path class="cls-1" d="M146.21,49V66c-1.37,0-2.67.05-4,0a1.07,1.07,0,0,1-.71-.8c0-5.35,0-10.71,0-16.17Z"/><path class="cls-2" d="M158.69,20.19V35h-4V26.94l-.34-.13-3.66,5.53-3.6-5.44-.25,0V35h-4.09V20.09c1.35,0,2.68,0,4,0,.29,0,.62.43.81.73,1,1.58,2,3.18,3.13,5,.69-1.07,1.29-2,1.86-2.92,1.92-3.08,1.92-3.09,5.54-2.89A5.08,5.08,0,0,1,158.69,20.19Z"/><path class="cls-2" d="M75.88,20.07a24.66,24.66,0,0,1,3.24.05,2.36,2.36,0,0,1,1.29.9c1.76,2.21,3.48,4.46,5.49,6.65V20.16h4a5.74,5.74,0,0,1,.13.9c0,4.32,0,8.64,0,13,0,.76-.21,1-1,1.11a3.92,3.92,0,0,1-4.15-1.9c-1.39-2.15-3.12-4.07-5-6.42V35h-4Z"/><path class="cls-2" d="M115.63,19.79a7.72,7.72,0,0,1,8.09,7.79,8.13,8.13,0,0,1-16.25-.06C107.49,23.11,111,19.79,115.63,19.79Zm3.9,7.79a3.92,3.92,0,0,0-4.11-4.1,3.85,3.85,0,0,0-3.74,4.16,3.93,3.93,0,1,0,7.85-.06Z"/><path class="cls-2" d="M105.39,23.62H97.68c-.1.22-.16.29-.16.37-.23,2.34-.23,2.34,2.07,2.34,1.61,0,3.22,0,4.94,0V29.7h-7V35H93.41V20.07h4.74c2,0,4,0,6,0,1,0,1.33.33,1.24,1.29C105.34,22,105.39,22.7,105.39,23.62Z"/><path class="cls-2" d="M72.23,35H68.36V20.15h3.87Z"/><path class="cls-1" d="M166,64.67c-1.79-4.27-4.76-11.72-6.57-16l-4.46,0S151.6,55.81,150.28,59c-.95,2.24-1.88,4.49-2.93,7,1.68,0,3.07,0,4.46,0l1.82-3.34h6.29l1.84,3.29c1.5.14,3,.06,4.68.06C166.23,65.38,166.12,65,166,64.67ZM155.1,59.08l1.79-4.63,1.78,4.63Z"/><path class="cls-1" d="M107.47,54.4a5.05,5.05,0,0,0-4.38-5.13c-3.25-.47-6.57-.41-10-.59V62.44c0,3.65,0,3.62,3.69,3.55,1,0,1.19-.39,1.16-1.25,0-1.16,0-2.33,0-3.67a20.48,20.48,0,0,0,2.09,0,19.81,19.81,0,0,0,3.46-.55C106.27,59.62,107.56,57.59,107.47,54.4Zm-5.11,1.73c-1,1.66-2.74,1-4.41,1.17V52.91c1.51.13,3.22-.61,4.3.94A2.58,2.58,0,0,1,102.36,56.13Z"/><path class="cls-1" d="M119.53,27.58a3.93,3.93,0,1,1-7.85.06,3.85,3.85,0,0,1,3.74-4.16A3.92,3.92,0,0,1,119.53,27.58Z"/><path class="cls-1" d="M178.53,13.73H73c-.35-1.37-1-2.36-2.47-2.44-1.63-.09-2.34,1.08-2.83,2.46H62.28V42H178.53c1.69,0,1.69,0,1.69-1.71V15.44C180.22,13.73,180.22,13.73,178.53,13.73ZM72.23,35H68.36V20.15h3.87Zm16.8.1a3.92,3.92,0,0,1-4.15-1.9c-1.39-2.15-3.12-4.07-5-6.42V35h-4V20.07a24.66,24.66,0,0,1,3.24.05,2.36,2.36,0,0,1,1.29.9c1.76,2.21,3.48,4.46,5.49,6.65V20.16h4a5.74,5.74,0,0,1,.13.9c0,4.32,0,8.64,0,13C90.06,34.78,89.84,35.05,89,35.13Zm16.38-13.8c-.07.68,0,1.37,0,2.29H97.68c-.1.22-.16.29-.16.37-.23,2.34-.23,2.34,2.07,2.34,1.61,0,3.22,0,4.94,0V29.7h-7V35H93.41V20.07h4.74c2,0,4,0,6,0C105.18,20,105.5,20.37,105.41,21.33Zm10.2,14.07a7.77,7.77,0,0,1-8.14-7.88c0-4.41,3.53-7.73,8.16-7.73a7.72,7.72,0,0,1,8.09,7.79A7.84,7.84,0,0,1,115.61,35.4ZM136,35.05c-.3,0-.65-.38-.86-.67a19.81,19.81,0,0,1-1.66-2.51,2.09,2.09,0,0,0-2.79-1.19V35h-4V20.34c3.18,0,6.36-.21,9.49.07,2.13.2,3.46,1.78,3.72,4a4.82,4.82,0,0,1-2.4,5.12c-.18.11-.35.24-.59.4l3.43,5.14C138.69,35.08,137.36,35.12,136,35.05Zm22.66,0h-4V26.94l-.34-.13-3.66,5.53-3.6-5.44-.25,0V35h-4.09V20.09c1.35,0,2.68,0,4,0,.29,0,.62.43.81.73,1,1.58,2,3.18,3.13,5,.69-1.07,1.29-2,1.86-2.92,1.92-3.08,1.92-3.09,5.54-2.89a5.08,5.08,0,0,1,.58.11ZM174.25,35H162.18V20.15h11.93v3.31h-7.82v2.42h6.86c.18.2.23.23.24.27.47,2.88.4,3-2.44,3h-4.67v2.5h8Z"/></svg>