<?xml version="1.0" encoding="utf-8"?>
<!-- Generator: Adobe Illustrator 21.1.0, SVG Export Plug-In . SVG Version: 6.00 Build 0)  -->
<svg version="1.1" id="Capa_1" xmlns="http://www.w3.org/2000/svg" xmlns:xlink="http://www.w3.org/1999/xlink" x="0px" y="0px"
	 viewBox="0 0 240 80" style="enable-background:new 0 0 240 80;" xml:space="preserve">
<style type="text/css">
	.st0{fill:#FFFFFF;}
	.st1{fill:#858585;}
</style>
<polygon class="st0" points="81.4,26.2 84.9,23.6 91.2,23.6 82.3,28 "/>
<rect x="28.9" y="22.3" class="st1" width="182.1" height="37.4"/>
<g>
	<polygon class="st0" points="68.7,32.3 75.8,32.3 75.8,53 79.6,53 79.6,32.3 86.7,32.3 86.7,29 68.7,29 	"/>
	<path class="st0" d="M123.5,38.1c0-5.5-3.6-9.2-10.2-9.2h-6.1v24h3.8v-5.7h2.4c0.6,0,1.2,0,1.7-0.1l4.1,5.8h4.5l-4.9-6.8
		C121.9,44.7,123.5,41.9,123.5,38.1z M113.1,44h-2.2V32.3h2.2c4.6,0,6.5,2.2,6.5,5.8C119.6,41.8,117.8,44,113.1,44z"/>
	<path class="st0" d="M137.3,49.9c-4.8,0-8.4-3.7-8.4-8.9c0-5.1,3.5-8.9,8.2-8.9c3.2,0,5.2,1.1,6.8,3.3l2.9-2
		c-2.1-2.9-5.2-4.7-9.6-4.7c-6.8,0-12.2,5.2-12.2,12.3c0,7.1,5.3,12.3,12.1,12.3c4.7,0,7.8-1.6,10.3-4.9l-2.9-2
		C142.7,48.7,140.4,49.9,137.3,49.9z"/>
	<path class="st0" d="M183.8,38.1c0-5.5-3.6-9.2-10.2-9.2h-6.1v24h3.8v-5.7h2.4c0.6,0,1.2,0,1.7-0.1l4.1,5.8h4.5l-4.9-6.8
		C182.1,44.7,183.8,41.9,183.8,38.1z M173.4,44h-2.2V32.3h2.2c4.6,0,6.5,2.2,6.5,5.8C179.9,41.8,178,44,173.4,44z"/>
	<path class="st0" d="M195.3,28.5h-0.2L184.6,53h3.8l1.4-3.4h10.7l1.4,3.4h4L195.3,28.5z M191.2,46.3l4-9.5l3.9,9.5H191.2z"/>
	<polygon class="st0" points="153.3,45.6 163.5,45.6 163.5,42.3 153.3,42.3 153.3,32.3 165.1,32.3 165.1,29 149.5,29 149.5,53 
		165.1,53 165.1,49.6 153.3,49.6 	"/>
	<polygon class="st0" points="92.9,45.6 103,45.6 103,42.3 92.9,42.3 92.9,32.3 104.8,32.3 104.8,29 89.1,29 89.1,53 104.8,53 
		104.8,49.6 92.9,49.6 	"/>
	<path class="st0" d="M58.1,28.5L49,49.6h-9.6V29h-3.8v24h11.9h2.7h1.1l1.4-3.4h10.7l1.4,3.4h4L58.3,28.5H58.1z M54.2,46.3l4-9.5
		l3.9,9.5H54.2z"/>
</g>
</svg>
