<?xml version="1.0" encoding="utf-8"?>
<!-- Generator: Adobe Illustrator 21.1.0, SVG Export Plug-In . SVG Version: 6.00 Build 0)  -->
<svg version="1.1" id="Capa_1" xmlns="http://www.w3.org/2000/svg" xmlns:xlink="http://www.w3.org/1999/xlink" x="0px" y="0px"
	 viewBox="0 0 240 80" style="enable-background:new 0 0 240 80;" xml:space="preserve">
<style type="text/css">
	.st0{fill:#858585;}
</style>
<g id="cZmHg5_1_">
	<g>
		<path class="st0" d="M78.8,52.9c-1.9,0-3.6,0-5.4,0c0-7.6,0-15.2,0-22.9c1.6,0,3.2,0,4.9,0c0.1,0.6,0.2,1.2,0.3,2
			c4.9-3.9,9.6-3.9,13.9,1c2.3-2.9,5.3-4.2,9-3.5c3.6,0.6,6.4,3.1,6.6,7c0.3,5.4,0.1,10.8,0.1,16.5c-1.6,0-3.1,0.1-4.7-0.1
			c-0.3,0-0.7-0.9-0.7-1.4c-0.1-3.7,0-7.4-0.1-11c0-1,0-2.1-0.3-3c-0.5-2.1-1.9-3.2-4-3.3c-2.1-0.1-3.8,1.1-4.4,3
			c-0.2,0.7-0.3,1.6-0.3,2.3c0,3.8,0,7.6,0,11.4c0,0.6,0,1.2,0,1.9c-1.9,0-3.6,0-5.6,0c0-1,0-2,0-2.9c0-3.6,0-7.2-0.1-10.9
			c-0.1-3.1-1.8-4.9-4.5-4.9c-2.7,0-4.5,2-4.5,5.1c0,4,0,7.9,0,11.9C78.9,51.7,78.9,52.3,78.8,52.9z"/>
		<path class="st0" d="M68,53c-1.8,0-3.3,0-4.9,0c-0.1-0.7-0.2-1.4-0.4-2.5c-2.1,2.4-4.6,3.1-7.5,3c-3.9-0.2-6.9-2.7-7.1-6.6
			c-0.3-5.3-0.2-17.1-0.2-17.1l5.5,0c0.1,4.2,0,9.8,0,14c0,3.4,1.3,4.9,4,5c2.8,0.1,4.9-2,5-5.1c0.1-4,0.1-7.9,0-11.9
			c0-1.4,0.3-2,1.9-2c3.8,0.1,3.8,0,3.8,3.7c0,5.7,0,11.4,0,17.1C68,51.4,68,52.1,68,53z"/>
		<path class="st0" d="M125.3,52.9c0-7.7,0-15.2,0-22.9c1.6,0,3.2,0,4.9,0c0.1,0.7,0.2,1.3,0.2,1.8c1.6-0.7,3.1-1.8,4.8-2.2
			c5.9-1.3,10.2,1.9,10.5,7.9c0.3,4.6,0.1,9.2,0.1,13.7c0,0.5,0,1,0,1.6c-1.8,0-3.6,0-5.5,0c0-0.6-0.1-1.3-0.1-1.9
			c0-4.1,0.1-8.2-0.1-12.2c-0.1-3.5-2.6-5.3-5.7-4.4c-1.7,0.5-2.9,1.6-3.3,3.3c-0.3,1-0.3,2.1-0.3,3.2c0,4,0,8,0,12.1
			C128.8,52.9,127.2,52.9,125.3,52.9z"/>
		<path class="st0" d="M182.5,26.4l0,3.3l5,0c0,0,0,4.8,0,4.8l-4.6,0c0,0-0.1,7.3-0.1,10c0,3.2,0.7,3.9,3.9,3.8c0.2,0,0.4,0,0.8,0.1
			c0,1.5,0,2.9,0,4.8c-2-0.1-4,0-5.8-0.4c-2.9-0.7-4.4-3.2-4.5-6.8c-0.1-3.2,0-11.4,0-11.4l-3.8-0.1c0.1-0.5,0-4.6,0-4.6l3.8,0
			l0-3.5C178.9,26.3,181.1,26.4,182.5,26.4z"/>
		<path class="st0" d="M33.1,29.6c0,6.2,0,12.1,0,18.1c3.6,0,7,0,10.6,0c0,1.8,0,3.4,0,5.3c-4.1,0-16.5,0-16.5,0
			c0-5.8,0-23.3,0-23.3L33.1,29.6z"/>
		<path class="st0" d="M114,52.9c0-0.5-0.1-1-0.1-1.4c0-6.6,0-13.2,0-19.8c0-1.2,0.2-1.8,1.6-1.8c3.9,0,3.9,0,3.9,3.9
			c0,5.6,0,11.3,0,16.9c0,0.7,0,1.3,0,2.2C117.6,52.9,115.9,52.9,114,52.9z"/>
		<g>
			<path class="st0" d="M208.5,43.2c4.7,0,4.7,0,3.9-4.7c-1.4-8.2-10.2-11.9-17.1-7.1c-4.7,3.3-6.2,11.2-3.2,16.8
				c2.7,4.8,9.4,6.9,14.9,4.5c2.8-1.2,4.8-3.3,5.4-6.6c-1.7,0-3.2,0-4.8,0c-0.4,0-0.8,0.3-1,0.7c-1.6,2.2-3.9,2.9-6.6,2.1
				c-2-0.6-3.9-3.1-3.6-5.6C200.5,43.2,204.5,43.2,208.5,43.2z M202.3,33.8c2.9,0.2,4.7,2.2,4.7,5.4c-3.5,0-6.9,0-10.5,0
				C197,35.6,199.2,33.6,202.3,33.8z"/>
		</g>
		<g>
			<path class="st0" d="M170.3,35.9c-0.1-2.9-2-4.9-4.8-5.8c-2.9-1-5.8-1-8.7-0.2c-3.8,1-6,3.6-6.2,7.3c1.6,0,3.1,0.1,4.7,0
				c0.4,0,0.8-0.5,1-0.9c1.2-2.5,4.9-3.6,7.2-1.9c1.3,0.9,1.7,2.2,1.4,3.6c-0.1,0.5-1.5,0.8-2.3,1c-2.9,0.6-5.8,0.8-8.6,1.6
				c-2.5,0.8-3.8,2.9-3.9,5.6c-0.2,4.1,2.9,7.1,7.4,7.4c3,0.2,5.6-0.6,7.9-2.9c0.1,1,0.2,1.6,0.2,2.3c1.7,0,3.2,0,4.8,0
				C170.4,47.2,170.5,41.5,170.3,35.9z M158.7,49.4c-1.8-0.3-2.9-1.4-3-3c-0.1-1.5,0.8-2.8,2.5-3.2c2.1-0.4,4.3-0.7,6.4-1
				C165.7,46.9,163,50.1,158.7,49.4z"/>
		</g>
	</g>
	<rect x="113.9" y="29.9" class="st0" width="5.6" height="23"/>
</g>
<rect x="62.4" y="29.8" class="st0" width="5.6" height="7.1"/>
</svg>
