<svg id="Capa_1" data-name="Capa 1" xmlns="http://www.w3.org/2000/svg" viewBox="0 0 240 80"><defs><style>.cls-1{fill:#858585;}</style></defs><title>Mesa de trabajo 1 copia 10</title><g id="N9uIEm.tif"><path class="cls-1" d="M33.5,18A22.5,22.5,0,1,0,56,40.5,22.5,22.5,0,0,0,33.5,18ZM30.16,47.18a2.4,2.4,0,0,1-2.47,2.64A2.34,2.34,0,0,1,25.1,47.3c-.11-3.06-.11-6.13,0-9.19a2.34,2.34,0,0,1,2.57-2.53c1.75.08,2.49,1.16,2.49,2.83,0,1.5,0,3,0,4.49S30.19,45.75,30.16,47.18Zm17.2,2.53a50.76,50.76,0,0,1-6.88-3.44A2.41,2.41,0,0,1,41.17,42c.52-.2,1.1-.26,1.65-.41a3.77,3.77,0,0,0-1.23-7.42,3.44,3.44,0,0,0-3.3,3.71c0,2.71,0,5.43,0,8.14,0,.7.19,1.44-.35,2.05h0c-.42,1.57-1.57,2-3,1.7S33.14,48.35,33.13,47c0-3.36,0-6.71,0-10.07a6.7,6.7,0,0,0-8.88-2.34,3.41,3.41,0,0,0-1.84,3.15c.05,2.63,0,5.27,0,7.91A11.94,11.94,0,0,1,22.1,48a2.19,2.19,0,0,1-2.7,1.8,2.15,2.15,0,0,1-2.1-2.28c0-3.56-.2-7.14.07-10.68C17.71,32.47,22,29,28,29c4,0,6.62,1.48,7.32,2.79a3,3,0,0,1,.42,0,8.44,8.44,0,0,1,11.74-.66,8.59,8.59,0,0,1,1.7,11.7c-.81,1.15-1.14,1.74.34,2.54a2.17,2.17,0,0,1,.94,3.13A2.34,2.34,0,0,1,47.36,49.71Z"/></g><path class="cls-1" d="M73.52,40.89c0-2.19,0-4.42.07-5.66h-.06c-.51,1.91-2.42,7-3.77,10.69h-1.4c-1-3-3-8.7-3.53-10.72h0c.09,1.37.13,4,.13,6v4.71H63.43V34.11h2.34c1.34,3.67,3,8.39,3.38,9.89h0c.27-1.13,2.21-6.32,3.6-9.89h2.27V45.92H73.52Z"/><path class="cls-1" d="M85.67,40.4H79.8v4.17h6.44L86,45.92H78.26V34.11H86v1.35H79.8v3.6h5.87Z"/><path class="cls-1" d="M88.38,34.11H92.6c3.31,0,5.56,2.27,5.56,5.79s-2.19,6-5.62,6H88.38ZM90,44.59h2.47c2.78,0,4.1-2,4.1-4.66,0-2.33-1.21-4.49-4.09-4.49H90Z"/><path class="cls-1" d="M102.18,34.11V45.92h-1.57V34.11Z"/><path class="cls-1" d="M115.58,40c0,3.24-1.82,6.13-5.54,6.13-3.47,0-5.41-2.68-5.41-6.06s2-6.07,5.55-6.07C113.5,34,115.58,36.44,115.58,40Zm-9.31,0c0,2.56,1.3,4.79,3.84,4.79,2.74,0,3.83-2.26,3.83-4.78s-1.24-4.69-3.83-4.69S106.27,37.45,106.27,40Z"/><path class="cls-1" d="M118.74,42.63a2.69,2.69,0,0,0,3,2.18c1.84,0,2.57-.86,2.57-2s-.58-1.84-3-2.42c-2.78-.67-3.74-1.62-3.74-3.28S118.91,34,121.54,34c2.81,0,4,1.62,4.13,3.17h-1.6a2.28,2.28,0,0,0-2.59-1.91c-1.43,0-2.24.64-2.24,1.77s.67,1.54,2.74,2.05c3.36.81,4,2.12,4,3.64,0,1.9-1.41,3.39-4.29,3.39s-4.25-1.62-4.49-3.43Z"/><path class="cls-1" d="M129.33,40.37v5.55h-.93V34h4.25c2.34,0,3.58,1.26,3.58,3.12A2.7,2.7,0,0,1,134,40c1.22.28,2,1.08,2,3.1v.46a7.92,7.92,0,0,0,.16,2.41h-.94a8,8,0,0,1-.17-2.48v-.31c0-2-.57-2.76-2.85-2.76Zm0-.85h2.86c2.09,0,3.06-.78,3.06-2.34s-.95-2.29-2.8-2.29h-3.12Z"/><path class="cls-1" d="M146.11,40.08h-6.06v5h6.63l-.13.85h-7.41V34h7.27v.85h-6.36v4.34h6.06Z"/><path class="cls-1" d="M158.12,45.92h-.76a8.28,8.28,0,0,1-.12-1.9c-.43.81-1.36,2-3.84,2-3.4,0-5.15-2.59-5.15-6,0-3.54,1.86-6.21,5.34-6.21,2.56,0,4.26,1.34,4.63,3.53h-.91a3.54,3.54,0,0,0-3.75-2.68c-3,0-4.33,2.31-4.33,5.31,0,2.71,1.31,5.17,4.21,5.17s3.8-1.93,3.8-4.56V40.5H153.4v-.84h4.72Z"/><path class="cls-1" d="M162.11,34V45.92h-.91V34Z"/><path class="cls-1" d="M175.41,39.89c0,3.24-1.73,6.19-5.39,6.19-3.35,0-5.29-2.69-5.29-6.1s1.88-6.11,5.4-6.11C173.39,33.87,175.41,36.43,175.41,39.89Zm-9.7,0c0,2.73,1.51,5.31,4.36,5.31,3.07,0,4.36-2.51,4.36-5.33s-1.46-5.19-4.33-5.19C167.05,34.72,165.71,37.25,165.71,39.93Z"/><path class="cls-1" d="M178,45.92V34h1.36c1.84,2.85,6.19,9.48,6.93,10.77h0c-.1-1.71-.09-3.46-.09-5.39V34h.94V45.92h-1.26c-1.76-2.75-6.17-9.66-7-11h0c.09,1.56.07,3.29.07,5.44v5.52Z"/><path class="cls-1" d="M191.79,41.81l-1.51,4.11h-.93L193.71,34h1.08l4.55,11.88h-1l-1.55-4.11Zm4.7-.85c-1.32-3.53-2-5.22-2.24-6h0c-.29.9-1,3-2.12,6Z"/><path class="cls-1" d="M201.45,34h.91v11h6.38l-.17.85h-7.12Z"/><path class="cls-1" d="M217.55,40.08h-6.06v5h6.63l-.13.85h-7.41V34h7.27v.85h-6.36v4.34h6.06Z"/><path class="cls-1" d="M220.66,42.73A3,3,0,0,0,224,45.24c2.18,0,3-1.09,3-2.38s-.6-2.17-3.21-2.81-3.59-1.44-3.59-3.16c0-1.56,1.13-3,3.68-3s3.71,1.6,3.86,3h-.95a2.65,2.65,0,0,0-3-2.19c-1.71,0-2.64.8-2.64,2.12s.78,1.82,3,2.36c3.34.83,3.83,2.17,3.83,3.59,0,1.75-1.27,3.26-4,3.26-3,0-4-1.73-4.27-3.32Z"/></svg>