<?xml version="1.0" encoding="utf-8"?>
<!-- Generator: Adobe Illustrator 21.1.0, SVG Export Plug-In . SVG Version: 6.00 Build 0)  -->
<svg version="1.1" id="Capa_1" xmlns="http://www.w3.org/2000/svg" xmlns:xlink="http://www.w3.org/1999/xlink" x="0px" y="0px"
	 viewBox="0 0 240 80" style="enable-background:new 0 0 240 80;" xml:space="preserve">
<style type="text/css">
	.st0{fill:#858585;}
</style>
<g>
	<title>Mesa de trabajo 1 copia 5</title>
	<g id="CzyIly_1_">
		<g>
			<path class="st0" d="M86.5,30.1c-0.1-0.7-0.2-1.1-1-1c-0.7,0.1-1.6-0.4-1.8,0.9c-0.4,2.4-0.9,4.8-1.4,7.2c-0.4,2.2-0.8,4.4-1.3,7
				c-0.2-0.5-0.3-0.6-0.3-0.8c-0.9-4.4-1.8-8.7-2.6-13.1c-0.2-1.3-0.9-1.2-1.8-1.2c-1.1-0.1-1,0.7-1.1,1.4c-0.4,5-0.8,10-1.3,15
				c-0.1,1.8-0.3,3.5-0.4,5.4c1,0,1.8,0,2.7,0c0.3-4.6,0.6-9.1,0.8-13.6c0.3,0.3,0.3,0.5,0.4,0.8c0.8,3.9,1.6,7.9,2.3,11.8
				c0.1,0.8,0.4,1.1,1.2,1.1c0.9,0,1.1-0.5,1.2-1.2c0.5-2.5,0.9-4.9,1.4-7.3c0.3-1.7,0.7-3.5,1-5.2c0.4,3.9,0.6,7.8,0.9,11.7
				c0.1,2.3,0.2,2.3,2.5,2c0.1,0,0.2-0.1,0.4-0.2c0-0.2,0-0.5,0-0.7C87.7,43.4,87,36.7,86.5,30.1z"/>
			<path class="st0" d="M134.8,28.7c-2.5,0-4.3,1.2-4.8,3.8c-0.5,2.4-0.7,4.8-0.9,6.5c0.2,2.6,0.2,4.3,0.5,6c0.1,1,0.4,2.1,0.7,3.1
				c0.8,2.2,2.5,3.3,4.9,3.2c2.3,0,4-1.1,4.6-3.4c1.4-5.1,1.3-10.3,0-15.4C139.1,29.9,137.3,28.7,134.8,28.7z M137.3,45.3
				c-0.1,0.7-0.2,1.6-0.6,2.1c-0.4,0.5-1.2,1.1-1.9,1.1c-0.6,0-1.4-0.6-1.7-1.1c-0.4-0.6-0.6-1.5-0.6-2.2c0-3.5,0-7.1,0-10.6
				c0-0.6,0.2-1.1,0.4-1.7c0.3-0.9,1-1.4,1.9-1.5c1,0,1.7,0.5,2,1.4c0.3,0.8,0.4,1.7,0.5,2.6c0.1,1.5,0.2,3,0.2,5
				C137.5,41.7,137.4,43.5,137.3,45.3z"/>
			<path class="st0" d="M181.8,40.8c-0.2-0.7-0.3-1.6,0-2.2c0.9-2.3,1.9-4.6,2.8-6.9c0.3-0.8,0.6-1.6,0.9-2.4
				c-2.8-0.4-2.8-0.4-3.7,2c-0.9,2.3-1.8,4.6-2.6,6.9c-0.1,0.3-0.3,0.5-0.5,0.8c-0.1,0-0.2,0-0.3-0.1c0-3.2,0-6.4,0-9.6
				c-0.5,0-0.8-0.1-1.1-0.1c-1.8,0-1.8,0-1.8,1.8c0,5.9,0,11.7,0,17.6c0,2.7,0,2.7,3,2.3c0-3.5,0-6.9,0-10.3
				c0.3,0.3,0.5,0.5,0.6,0.8c1,2.8,2,5.7,3.1,8.5c0.2,0.4,0.5,1,0.9,1.1c0.8,0.2,1.7,0.1,2.7,0.1c-0.3-0.7-0.5-1.3-0.7-1.8
				C184.1,46.4,182.9,43.6,181.8,40.8z"/>
			<path class="st0" d="M169.5,30.8c-0.2-0.8,0-1.8-1.5-1.8c-1.4,0-1.4,0.9-1.6,1.7c-1.3,6.1-2.6,12.1-4,18.2
				c-0.1,0.6-0.2,1.2-0.4,1.9c2.7,0.4,2.7,0.4,3.2-1.9c0.1-0.4,0.2-0.9,0.2-1.3c0.1-1.2,1.1-1,1.7-0.8c1,0.2,2.5-0.9,3,0.8
				c0.3,0.8,0.4,1.6,0.5,2.4c0.1,0.8,0.5,1,1.2,1c0.6,0,1.1,0,1.8,0c-0.1-0.7-0.2-1.3-0.3-1.8C172.2,43,170.8,36.9,169.5,30.8z
				 M166.2,44.3c0.6-3.3,1.1-6.5,1.7-10.1c0.6,3.6,1.1,6.8,1.7,10.1C168.5,44.3,167.4,44.3,166.2,44.3z"/>
			<path class="st0" d="M110.6,29.2c-2.8-0.4-2.8-0.4-3.6,2c-0.2,0.8-0.5,1.5-0.7,2.3c-0.3,0.9-0.6,1.8-1,3
				c-0.7-2.1-1.3-3.8-1.9-5.5c-0.8-2.2-0.9-2.3-3.4-1.7c0.2,0.5,0.3,1.1,0.5,1.6c0.9,2.6,1.9,5.2,2.8,7.8c0.2,0.7,0.2,1.6,0,2.4
				c-0.9,2.6-1.9,5.1-2.8,7.6c-0.3,0.7-0.5,1.4-0.7,2.2c2.9,0.4,2.9,0.4,3.7-2c0.5-1.7,1.1-3.5,1.7-5.4c0.7,2,1.3,3.8,1.9,5.6
				c0.8,2.2,1,2.4,3.5,1.8c-0.9-2.3-1.6-4.7-2.6-7c-1.2-2.7-1.3-5.2,0-7.8C109.1,33.8,109.7,31.5,110.6,29.2z"/>
			<path class="st0" d="M157.1,31.4c1,0,2,0.1,3,0c0.3,0,0.7-0.5,0.8-0.8c0.1-0.4,0-0.9,0-1.5c-2.6,0-5.1,0-7.7,0
				c0,7.3,0,14.5,0,21.8c2.3,0,4.5,0,6.7,0c1,0,1-0.5,1-1.2c0-0.8-0.1-1.3-1-1.2c-1.2,0.1-2.5,0-3.8,0c0-2.6,0-5.1,0-7.6
				c1,0,2,0,2.9,0c0.9,0.1,1.3-0.1,1.3-1.2c0-1-0.3-1.3-1.3-1.2c-0.7,0.1-1.5,0.1-2.2,0c-0.3-0.1-0.8-0.5-0.8-0.8
				c-0.1-1.7,0-3.5,0-5.2C156.1,31.6,156.4,31.4,157.1,31.4z"/>
			<path class="st0" d="M92.2,29c-1.1,0-1.4,0.3-1.4,1.4c0.1,6.4,0,12.8,0,19.2c0,0.4,0.1,0.8,0.1,1.3c2.6,0,5.1,0,7.6,0
				c0-0.8,0-1.5,0-2.3c-1.3,0-2.5,0-3.8,0c-0.8,0-1.1-0.3-1.1-1.1c0-1.2,0-2.4,0-3.5c0-3,0-3,3-3c0.9,0,1.4-0.1,1.4-1.2
				c0-1.1-0.5-1.3-1.4-1.3c-0.7,0-1.3,0-2,0c-0.8,0-1-0.3-1-1c0-1.7,0-3.4,0-5.1c0-0.7,0.3-0.9,0.9-0.9c1.3,0,2.5,0,3.9,0
				c0-0.8,0-1.6,0-2.4C96.4,29,94.3,29.1,92.2,29z"/>
			<path class="st0" d="M195,41c-0.8-1-1.8-1.9-2.6-2.9c-0.6-0.7-1.3-1.5-1.7-2.3c-0.7-1.2-0.4-2.8,0.5-3.7c1-1,2.2-0.9,3.4-0.4
				c0.2,0.1,0.5,0.2,1.1,0.5c-0.3-1.2-0.3-2.6-0.8-2.9c-2.6-1.4-6.1-0.6-7.1,2.8c-0.9,3-0.1,5.5,2.2,7.6c1.1,1,2.1,2.1,3,3.3
				c1,1.3,0.9,3.5,0,4.6c-0.9,1-2.2,1-4,0.1c-0.2-0.1-0.3-0.1-0.6-0.2c-0.6,2.7,0.1,3.5,2.6,3.7c2.3,0.2,4.2-1,5.1-3.1
				C196.9,45.6,196.7,43.2,195,41z"/>
			<path class="st0" d="M121.9,45.3c-0.2-0.7-0.4-1.5-0.4-2.2c0.1-2.8,0-5.7,0.4-8.5c0.4-2.7,2-3.5,4.7-3c0.2,0,0.4,0,0.6-0.1
				c0.2-2.5-0.5-3.1-2.9-2.9c-2.5,0.2-4.2,1.6-4.9,3.9c-1.6,4.8-1.7,9.7-0.1,14.6c0.8,2.4,2.5,3.9,5.2,4.1c2.5,0.1,3-0.4,2.7-3
				C123.9,48.6,122.7,47.9,121.9,45.3z"/>
			<path class="st0" d="M150.1,48.5c-1.2,0.1-2.3,0-3.7,0c0-6.6,0-13,0-19.4c-1,0-1.9,0-2.8,0c-0.1,0.3-0.1,0.5-0.1,0.7
				c0,6.7,0,13.5,0,20.2c0,0.8,0.3,1,1,1c1.9,0,3.8-0.1,5.6,0c1,0,1.1-0.4,1.1-1.3C151.3,48.8,151,48.5,150.1,48.5z"/>
			<path class="st0" d="M58,27.7c-1-1.3-2-2.5-3-3.7c-0.2,0.1-0.3,0.1-0.4,0.1c-3.2,4.1-6.5,8.2-9.4,12.5c-1.9,2.7-1.8,6-0.6,9.1
				c1.7,4.2,5,6.6,9.5,6.9c4.4,0.3,7.9-1.6,10.1-5.4c2.3-3.9,2.1-7.9-0.4-11.7C62.1,32.9,60,30.3,58,27.7z M63,47
				c-2.3,3.3-6.4,4.9-10.2,4.1c-4.1-0.9-7-4-7.7-8.2c-0.4-2.4-0.1-4.7,1.3-6.7c2.6-3.6,5.4-7.1,8.1-10.6c0.1-0.1,0.2-0.1,0.5-0.3
				c1.3,1.6,2.5,3.1,3.8,4.7c1.5,1.9,3,3.8,4.3,5.8C65.4,39.3,65.3,43.7,63,47z"/>
			<path class="st0" d="M113.2,29c-0.7,0-0.9,0.2-0.9,0.9c0,6.7,0,13.4,0,20.1c0,0.7,0.3,1,0.9,0.9c0.6,0,1.3,0,2,0
				c0-7.4,0-14.5,0-21.9C114.5,29,113.8,29.1,113.2,29z"/>
			<path class="st0" d="M94.8,26.5c1-0.5,1.9-1.2,2.9-2c-0.5-0.6-1-1.1-1.5-1.7c-1,1.1-1.9,2.1-3.1,3.4
				C93.8,26.3,94.4,26.7,94.8,26.5z"/>
			<path class="st0" d="M54.8,26.3c-2.8,3.9-5.6,7.3-7.9,11c-2.1,3.4-0.9,8.1,2.3,10.6c3.3,2.7,7.8,2.7,11.1,0.1
				c3.2-2.5,4.5-7.3,2.4-10.7C60.5,33.5,57.7,30.1,54.8,26.3z M59.8,47.1c-2.8,2.3-7.1,2.3-9.9,0c-3-2.4-4-6.7-1.9-9.9
				c2-3.2,4.4-6.1,6.9-9.4c2.5,3.4,4.9,6.3,6.9,9.4C63.8,40.5,62.8,44.7,59.8,47.1z"/>
			<path class="st0" d="M54.9,29.1c-2.1,2.8-4.1,5.3-5.9,7.9c-1.9,2.8-1.3,6.6,1.1,8.8c2.5,2.3,6.3,2.5,9,0.3
				c2.6-2.1,3.6-5.8,1.8-8.7C59.2,34.6,57.1,32.1,54.9,29.1z M58.6,45c-2.3,1.8-5.5,1.8-7.7-0.2c-2.2-1.9-2.8-5.2-1.1-7.7
				c1.5-2.2,3.2-4.3,5.1-6.8c1.9,2.5,3.7,4.7,5.2,7C61.7,39.9,60.9,43.2,58.6,45z"/>
			<path class="st0" d="M54.8,31.6c-1.7,2.3-3.3,4.3-4.5,6.4c-1.1,2-0.3,4.6,1.5,6c1.9,1.4,4.4,1.4,6.2-0.1c1.8-1.4,2.5-4.1,1.4-6
				C58.1,35.8,56.5,33.9,54.8,31.6z"/>
		</g>
	</g>
</g>
</svg>
