<?xml version="1.0" encoding="utf-8"?>
<!-- Generator: Adobe Illustrator 21.1.0, SVG Export Plug-In . SVG Version: 6.00 Build 0)  -->
<svg version="1.1" id="Capa_1" xmlns="http://www.w3.org/2000/svg" xmlns:xlink="http://www.w3.org/1999/xlink" x="0px" y="0px"
	 viewBox="0 0 240 80" style="enable-background:new 0 0 240 80;" xml:space="preserve">
<style type="text/css">
	.st0{fill:#FFFFFF;}
	.st1{fill:#858585;}
</style>
<title>Mesa de trabajo 1 copia 5</title>
<g id="_636YnP">
	<path class="st0" d="M78.3,142.9c0.1,0.7,0.2,1.3-0.7,1.6s-0.9,1.2-0.9,1.9c-0.1,1.9-0.1,3.9-0.1,5.8c0,2.3,0,4.5,0,6.9h4.4
		c0-0.2,0.1-0.4,0.1-0.6c0-3.7,0-7.4,0-11.1c0-0.7-0.1-1.3-0.3-2c-0.1-0.4-0.3-0.7-0.7-0.9c-0.8-0.3-0.8-0.9-0.7-1.6h6.3v1.3
		c-1,0.3-1.6,1.3-1.5,2.3c-0.1,1.2-0.1,2.4-0.1,3.7c0,7.9,0,15.8,0,23.7c0,0.9,0.1,1.8,0.3,2.7c0.1,0.4,0.3,0.7,0.7,0.9
		c0.9,0.3,0.7,0.9,0.6,1.6h-6.3v-1.2c0.9-0.2,1.6-1.1,1.5-2.1c0-3,0.1-6.1,0.1-9.2c0-1.6,0-3.2,0-4.9h-4.3c0,0.1-0.1,0.2-0.1,0.3
		c0,4.5,0,9.1,0.1,13.6c-0.2,1.1,0.5,2.1,1.6,2.3v1.2H72c-0.1-0.6-0.2-1.2,0.6-1.6c0.5-0.3,0.7-1.1,0.8-1.7c0.1-0.6,0.2-1.2,0.1-1.8
		c0-8.5,0-16.9,0-25.4c0-1-0.1-2-0.3-3c-0.1-0.4-0.3-0.8-0.7-1c-0.8-0.4-0.8-0.9-0.7-1.7H78.3z"/>
	<path class="st0" d="M96,169.8c-0.1-1.2-0.2-2.5-0.3-3.7c-0.1-1-0.3-2-0.6-3c-0.2-0.9-1.1-1.6-2-1.6c0,0.3,0,0.5,0,0.8
		c0,4.1,0,8.2,0,12.4c0,0.6,0.1,1.1,0.1,1.7c0,0.7,0.5,1.2,1.2,1.2c0,0,0.1,0,0.1,0c1.1,0,2.1-0.5,2.7-1.5c0.9-1.5,1.5-3.1,1.8-4.9
		c0.2-0.9,0.3-1.8,0.5-2.7c0-0.1,0.2-0.3,0.3-0.4c0.1,0.1,0.2,0.3,0.2,0.4c-0.2,3.5-0.5,7.1-0.7,10.7H88.3c-0.1-0.7-0.3-1.3,0.6-1.6
		c0.3-0.2,0.6-0.5,0.7-0.9c0.2-0.8,0.3-1.5,0.3-2.3c0-8.9,0-17.9,0-26.8c0-0.7-0.1-1.5-0.3-2.2c-0.1-0.3-0.3-0.6-0.5-0.8
		c-0.9-0.3-0.7-0.9-0.7-1.6h10.7c0,0.3,0,0.6,0,0.8c0,3.1,0,6.2,0,9.2c0,0.2-0.1,0.5-0.2,0.7c-0.1-0.2-0.2-0.5-0.3-0.7
		c-0.3-2-0.5-3.9-1-5.9c-0.3-1.5-1.7-2.6-3.3-2.4c-0.6-0.1-1.2,0.4-1.2,1c0,0,0,0.1,0,0.1c0,0.4-0.1,0.7-0.1,1.1v12.3
		c0,0.2,0,0.3,0,0.4c0.9,0.2,1.8-0.4,2-1.3c0.4-1.2,0.6-2.5,0.8-3.8c0.1-0.7,0.1-1.5,0.2-2.2c0.1-0.2,0.2-0.4,0.3-0.5l0.2,0.1
		c0,0.2,0,0.4,0,0.7c0,5.6,0,11.1,0,16.7c0,0.2-0.1,0.5-0.2,0.7L96,169.8z"/>
	<path class="st0" d="M147.1,179.2v-1.3c1.1-0.2,1.4-1,1.4-1.9c0.1-0.9,0.1-1.7,0.1-2.5c0-8.2,0.1-16.4-0.1-24.7
		c0-1.5-0.9-2.9-1.4-4.4c-0.1-0.5-0.2-1-0.3-1.5c1.4,0,2.6,0,3.8,0c0.2,0,0.4,0.4,0.5,0.7c0.9,3.2,1.9,6.4,2.8,9.6l3.3,11.7
		c0,0.1,0.1,0.2,0.2,0.3c0-0.2,0.1-0.4,0.1-0.6c0-5.1,0-10.2,0-15.3c0-1.1-0.1-2.2-0.3-3.3c-0.1-0.7-0.5-1.3-1.1-1.5
		c-0.7-0.4-0.2-0.9-0.4-1.5h4c0.3,0.7,0,1.4-0.6,1.8c-0.4,0.3-0.6,0.8-0.7,1.3c-0.1,1-0.2,1.9-0.2,2.9c0,10.1,0,20.2,0,30.3v0.9
		l-0.3,0.1c-0.2-0.2-0.3-0.5-0.4-0.7c-1.3-4.4-2.6-8.9-3.9-13.3l-3.9-13.6c-0.1-0.3-0.2-0.5-0.4-0.7c0,0.2,0,0.4,0,0.6
		c0,6.8,0,13.7,0,20.6c0,1,0.1,2.1,0.2,3.1c0.1,0.7,0.5,1.4,1.2,1.8c0.3,0.2,0.3,0.8,0.5,1.4H147.1z"/>
	<path class="st0" d="M62.2,144.7c-0.9,0-1.8,0.5-2.2,1.4c-0.5,1.4-0.9,2.8-1.2,4.3c-0.1,1-0.2,1.9-0.3,2.9c0,0.2-0.2,0.3-0.3,0.5
		c-0.1-0.2-0.2-0.3-0.2-0.5c0-3.3,0-6.7,0-10c0-0.1,0-0.2,0-0.3h11.2v10.7c-0.5,0-0.5,0-0.5-0.6c-0.2-1.6-0.3-3.2-0.6-4.8
		c-0.2-0.8-0.4-1.5-0.8-2.2c-0.4-0.8-1.2-1.4-2.2-1.3v0.7c0,9.5,0,19.1,0,28.6c0,0.6,0.1,1.2,0.1,1.8c0.1,1.1,0.4,2,1.7,2v1.3h-6.6
		v-1.3c1.1-0.1,1.5-0.9,1.6-1.9c0.1-0.8,0.2-1.5,0.2-2.3c0-9.4,0-18.9,0-28.3L62.2,144.7z"/>
	<path class="st0" d="M120.6,171.2c0.5,0.6,0.6,1.4,0.3,2.1c-0.7,1.8-1.5,3.5-2.3,5.2c-1.4,2.4-3.9,2.4-5.6,0.2
		c-1.4-2-2.4-4.2-2.8-6.6c-0.9-4.6-1.3-9.2-0.9-13.9c0.1-3.9,0.8-7.8,2.2-11.5c0.5-1.2,1.2-2.4,2-3.4c1.3-1.6,3-1.5,4.5-0.1
		c0.3,0.3,0.7,0.7,1,1c0.5,0.5,0.8,0.4,1-0.3c0.1-0.4,0.2-0.9,0.3-1.3c0.1-0.2,0.2-0.3,0.4-0.5l0.2,0.1v12.5l-0.2,0.1
		c-0.1-0.2-0.3-0.4-0.4-0.6c-0.6-2.3-1.1-4.7-1.7-7c-0.3-0.9-0.7-1.7-1.3-2.4c-0.4-0.7-1.3-1-2-0.7c-0.3,0.2-0.6,0.5-0.7,0.8
		c-0.6,1.1-1,2.4-1.2,3.6c-0.4,3-0.7,6.1-0.8,9.2c-0.1,3.6,0,7.3,0.2,10.9c0.2,2.2,0.6,4.5,1.2,6.6c0.2,1.1,0.8,2.2,2.1,2.3
		s2-0.9,2.5-1.9c0.6-1.2,1.1-2.5,1.6-3.8C120.4,171.8,120.5,171.5,120.6,171.2z"/>
	<path class="st1" d="M52.6,136.6v49.9h136.6v-49.9H52.6z M144.7,142.9c0.1,0.7,0.3,1.3-0.7,1.6c-0.4,0.2-0.7,0.6-0.8,1.1
		c-0.2,0.8-0.3,1.6-0.3,2.4c0,8.7,0,17.4,0,26.2c0,0.6,0,1.2,0.1,1.8c0,0.9,0.7,1.8,1.6,1.9v1.3h-6.5v-1.3c1.3-0.2,1.5-1.3,1.6-2.4
		s0.1-2.5,0.1-3.7c0-7.6,0-15.3,0-22.9c0-1.1-0.1-2.1-0.2-3.2c-0.1-0.7-0.5-1.2-1.1-1.4c-0.8-0.3-0.2-0.9-0.4-1.4H144.7z
		 M109.3,158.2c0.1-3.9,0.8-7.8,2.2-11.5c0.5-1.2,1.2-2.4,2-3.4c1.3-1.6,3-1.5,4.5-0.1c0.3,0.3,0.7,0.7,1,1c0.5,0.5,0.8,0.4,1-0.3
		c0.1-0.4,0.2-0.9,0.3-1.3c0.1-0.2,0.2-0.3,0.4-0.5l0.2,0.1v12.5l-0.2,0.1c-0.1-0.2-0.3-0.4-0.4-0.6c-0.6-2.3-1.1-4.7-1.7-7
		c-0.3-0.9-0.7-1.7-1.3-2.4c-0.4-0.7-1.3-1-2-0.7c-0.3,0.2-0.6,0.5-0.7,0.8c-0.6,1.1-1,2.4-1.2,3.6c-0.4,3-0.7,6.1-0.8,9.2
		c-0.1,3.6,0,7.3,0.2,10.9c0.2,2.2,0.6,4.5,1.2,6.6c0.2,1.1,0.8,2.2,2.1,2.3s2-0.9,2.5-1.9c0.6-1.2,1.1-2.5,1.6-3.8
		c0.1-0.2,0.2-0.5,0.3-0.8c0.5,0.6,0.6,1.4,0.3,2.1c-0.7,1.7-1.4,3.5-2.3,5.1c-1.4,2.4-3.9,2.4-5.6,0.2c-1.4-2-2.4-4.2-2.8-6.6
		C109.3,167.5,108.9,162.8,109.3,158.2z M89.6,145.4c-0.1-0.3-0.3-0.6-0.6-0.8c-0.9-0.3-0.7-0.9-0.7-1.6h10.7c0,0.3,0,0.6,0,0.8
		c0,3.1,0,6.2,0,9.2c0,0.2-0.1,0.5-0.2,0.7c-0.1-0.2-0.2-0.5-0.3-0.7c-0.3-2-0.5-3.9-1-5.9c-0.3-1.5-1.7-2.6-3.3-2.4
		c-0.6-0.1-1.2,0.4-1.2,1c0,0,0,0.1,0,0.1c0,0.4-0.1,0.7-0.1,1.1v12.3c0,0.2,0,0.3,0,0.4c0.9,0.2,1.8-0.4,2-1.3
		c0.4-1.2,0.6-2.5,0.8-3.8c0.1-0.7,0.1-1.5,0.2-2.2c0.1-0.2,0.2-0.4,0.3-0.5l0.2,0.1c0,0.2,0,0.4,0,0.7c0,5.6,0,11.1,0,16.7
		c0,0.2-0.1,0.5-0.2,0.7H96c-0.1-1.2-0.2-2.5-0.3-3.7c-0.1-1-0.3-2-0.6-3c-0.2-1-1-1.7-2-1.7c0,0.3,0,0.5,0,0.8c0,4.1,0,8.2,0,12.4
		c0,0.6,0.1,1.1,0.1,1.7c0,0.7,0.5,1.2,1.2,1.2c0,0,0.1,0,0.1,0c1.1,0,2.1-0.5,2.7-1.5c0.9-1.5,1.5-3.1,1.8-4.9
		c0.2-0.9,0.3-1.8,0.5-2.7c0-0.1,0.2-0.3,0.3-0.4c0.1,0.1,0.2,0.3,0.2,0.4c-0.2,3.5-0.5,7.1-0.7,10.7H88.3c-0.1-0.7-0.3-1.3,0.6-1.6
		c0.3-0.2,0.6-0.5,0.7-0.9c0.2-0.8,0.3-1.5,0.3-2.3c0-8.9,0-17.9,0-26.8C89.8,146.8,89.8,146.1,89.6,145.4z M69.3,153.6
		c-0.5,0-0.5,0-0.5-0.6c-0.2-1.6-0.3-3.2-0.6-4.8c-0.2-0.8-0.4-1.5-0.8-2.2c-0.4-0.8-1.2-1.4-2.2-1.3v0.7c0,9.5,0,19.1,0,28.6
		c0,0.6,0.1,1.2,0.1,1.8c0.1,1.1,0.4,2,1.7,2v1.3h-6.6v-1.3c1.1-0.1,1.5-0.9,1.6-1.9c0.1-0.8,0.2-1.5,0.2-2.3c0-9.4,0-18.9,0-28.3
		v-0.7c-0.9,0-1.8,0.5-2.2,1.4c-0.5,1.4-0.9,2.8-1.2,4.3c-0.1,1-0.2,1.9-0.3,2.9c0,0.2-0.2,0.3-0.3,0.5c-0.1-0.2-0.2-0.3-0.2-0.5
		c0-3.3,0-6.7,0-10c0-0.1,0-0.2,0-0.3h11.2V153.6z M85.8,179.1h-6.3v-1.2c0.9-0.2,1.6-1.1,1.5-2.1c0-3,0.1-6.1,0.1-9.2
		c0-1.6,0-3.2,0-4.9h-4.3c0,0.1-0.1,0.2-0.1,0.3c0,4.5,0,9.1,0.1,13.6c-0.2,1.1,0.5,2.1,1.6,2.3v1.2H72c-0.1-0.6-0.2-1.2,0.6-1.6
		c0.5-0.2,0.7-1.1,0.8-1.7c0.1-0.6,0.2-1.2,0.1-1.8c0-8.5,0-16.9,0-25.4c0-1-0.1-2-0.3-3c-0.1-0.4-0.3-0.8-0.7-1
		c-0.8-0.4-0.8-0.9-0.7-1.7h6.3c0.1,0.7,0.2,1.3-0.7,1.6s-0.9,1.2-0.9,1.9c-0.1,1.9-0.1,3.9-0.1,5.8c0,2.3,0,4.5,0,6.9h4.4
		c0-0.2,0.1-0.4,0.1-0.6c0-3.7,0-7.4,0-11.1c0-0.7-0.1-1.3-0.3-2c-0.1-0.4-0.3-0.8-0.7-1c-0.8-0.3-0.8-0.9-0.7-1.6h6.3v1.3
		c-1,0.3-1.6,1.3-1.5,2.3c-0.1,1.2-0.1,2.4-0.1,3.7c0,7.9,0,15.8,0,23.7c0,0.9,0.1,1.8,0.3,2.7c0.1,0.4,0.3,0.7,0.7,1
		C86.1,177.8,85.9,178.5,85.8,179.1z M135.4,172.6c-0.1,2-0.2,4-0.4,5.9c0,0.3,0,0.7-0.5,0.7c-3.4,0-6.9,0-10.4,0
		c0-0.4,0-0.8-0.1-1.3c1-0.3,1.7-1.3,1.6-2.3c0-0.6,0.1-1.2,0.1-1.8c0-8.6,0-17.3,0-25.9c0-0.6,0-1.3-0.1-1.9c0-0.9-0.6-1.6-1.5-1.8
		v-1.3h6.4c0.3,1,0.2,1.1-0.6,1.5c-0.6,0.3-1,1-1,1.7c-0.1,1-0.1,2-0.2,3c0,8.4,0,16.8,0,25.1c0,0.6,0.1,1.3,0.1,1.9
		c0,0.8,0.7,1.4,1.4,1.3c0.1,0,0.2,0,0.4-0.1c1.2-0.2,2.2-1.1,2.6-2.3c0.7-2,1.1-4,1.6-6.1c0.1-0.6,0.2-1.2,0.3-1.7
		c0-0.2,0.2-0.3,0.4-0.5l0.2,0.2C135.6,168.9,135.5,170.8,135.4,172.6L135.4,172.6z M159.4,144.7c-0.4,0.3-0.6,0.8-0.7,1.3
		c-0.1,1-0.2,1.9-0.2,2.9c0,10.1,0,20.2,0,30.3v0.9l-0.3,0.1c-0.2-0.2-0.3-0.5-0.4-0.7c-1.3-4.4-2.6-8.9-3.9-13.3l-4-13.6
		c-0.1-0.3-0.2-0.5-0.4-0.7c0,0.2,0,0.4,0,0.6c0,6.8,0,13.7,0,20.6c0,1,0.1,2.1,0.2,3.1c0.1,0.7,0.5,1.4,1.2,1.8
		c0.3,0.2,0.3,0.8,0.5,1.4h-4.4v-1.3c1.1-0.2,1.4-1,1.4-1.9c0.1-0.9,0.1-1.7,0.1-2.5c0-8.2,0.1-16.4-0.1-24.7c0-1.5-0.9-2.9-1.4-4.4
		c-0.1-0.5-0.2-1-0.3-1.5c1.4,0,2.6,0,3.8,0c0.2,0,0.4,0.4,0.5,0.7c0.9,3.2,1.9,6.4,2.8,9.6l3.3,11.7c0,0.1,0.1,0.2,0.2,0.3
		c0-0.2,0.1-0.4,0.1-0.6c0-5.1,0-10.2,0-15.3c0-1.1-0.1-2.2-0.3-3.3c-0.1-0.7-0.5-1.3-1.1-1.5c-0.7-0.4-0.2-0.9-0.4-1.5h4
		C160.2,143.6,160,144.3,159.4,144.7L159.4,144.7z M167.3,175.9c0.1,1,0.4,1.9,1.6,2v1.3h-6.5v-1.3c1.2-0.2,1.4-1.1,1.6-2.1
		c0.1-0.6,0.1-1.3,0.1-1.9c0-8.6,0-17.1,0-25.7c0-0.8-0.1-1.7-0.2-2.5c-0.1-0.4-0.4-1-0.7-1.1c-0.9-0.3-0.8-0.9-0.7-1.6h6.5
		c0.1,0.7,0.3,1.3-0.7,1.6c-0.3,0.1-0.7,0.6-0.8,1c-0.2,0.8-0.3,1.6-0.3,2.4c0,8.7,0,17.5,0,26.2
		C167.2,174.7,167.2,175.3,167.3,175.9L167.3,175.9z M183.5,173.1c-0.7,1.6-1.2,3.4-2.1,4.9c-1.7,3-4.3,3.1-6.3,0.2
		c-1.4-2.2-2.3-4.7-2.7-7.3c-1.2-6.9-1.1-14,0.4-20.9c0.4-2,1.1-3.8,2.2-5.5c0.3-0.5,0.7-1,1.2-1.4c1-1.1,2.8-1.1,3.9-0.1
		c0,0,0,0,0,0c0.5,0.4,1,0.9,1.5,1.4s0.7,0.3,0.8-0.2s0.2-1,0.4-1.5c0-0.2,0.2-0.3,0.3-0.4c0.1,0.1,0.2,0.3,0.2,0.4c0,4,0,8,0,12.1
		l-0.3,0.1c-0.1-0.2-0.2-0.4-0.3-0.7c-0.5-2-0.9-4.1-1.4-6.1c-0.3-1.1-0.7-2.1-1.3-3c-1-1.5-2.4-1.4-3.2,0.2c-0.5,1-0.8,2.1-1,3.2
		c-1.2,8-1.2,16-0.1,24c0.2,1.2,0.5,2.4,1.1,3.6c0.9,2,2.6,2.2,3.8,0.4c0.8-1.4,1.5-2.9,2.1-4.4c0.1-0.2,0.2-0.5,0.3-0.8
		C183.6,171.7,183.7,172.4,183.5,173.1L183.5,173.1z"/>
	<path class="st0" d="M135.7,167.1c-0.1,1.8-0.2,3.7-0.3,5.6c-0.1,1.8-0.2,4-0.4,5.9c0,0.3,0,0.7-0.5,0.7c-3.4,0-6.9,0-10.4,0
		l-0.1-1.3c1-0.3,1.7-1.3,1.6-2.3c0-0.6,0.1-1.2,0.1-1.8c0-8.6,0-17.3,0-25.9c0-0.6,0-1.3-0.1-1.9c0-0.9-0.6-1.6-1.5-1.8v-1.3h6.4
		c0.3,1,0.2,1.1-0.6,1.5c-0.6,0.3-1,1-1,1.7c-0.1,1-0.1,2-0.2,3c0,8.4,0,16.8,0,25.1c0,0.6,0.1,1.3,0.1,1.9c0,0.8,0.7,1.4,1.5,1.3
		c0.1,0,0.2,0,0.3-0.1c1.2-0.2,2.2-1.1,2.6-2.3c0.7-2,1.1-4,1.6-6.1c0.1-0.6,0.2-1.2,0.3-1.7c0-0.2,0.2-0.3,0.4-0.5L135.7,167.1z"/>
	<path class="st0" d="M168.9,177.9v1.3h-6.5v-1.3c1.2-0.2,1.4-1.1,1.6-2.1c0.1-0.6,0.1-1.3,0.1-1.9c0-8.6,0-17.1,0-25.7
		c0-0.8-0.1-1.7-0.2-2.5c-0.1-0.4-0.4-1-0.7-1.1c-0.9-0.3-0.8-0.9-0.7-1.6h6.5c0.1,0.7,0.3,1.3-0.7,1.6c-0.3,0.1-0.7,0.6-0.8,1
		c-0.2,0.8-0.3,1.6-0.3,2.4c0,8.7,0,17.5,0,26.2c0,0.6,0,1.1,0.1,1.7C167.4,176.9,167.7,177.7,168.9,177.9z"/>
	<path class="st0" d="M138.2,142.9h6.5c0.1,0.7,0.3,1.3-0.7,1.6c-0.4,0.2-0.7,0.6-0.8,1.1c-0.2,0.8-0.3,1.6-0.3,2.4
		c0,8.7,0,17.4,0,26.2c0,0.6,0,1.2,0.1,1.8c0,0.9,0.7,1.8,1.6,1.9v1.3h-6.5v-1.3c1.3-0.2,1.5-1.3,1.6-2.4s0.1-2.5,0.1-3.7
		c0-7.6,0-15.3,0-22.9c0-1.1-0.1-2.1-0.2-3.2c-0.1-0.7-0.5-1.2-1.1-1.4C137.8,144,138.4,143.5,138.2,142.9z"/>
</g>
<image style="overflow:visible;" width="568" height="569" xlink:href="../../../../Desktop/poder.png"  transform="matrix(0.1692 0 0 0.1692 71.9531 -8.1315)">
</image>
</svg>
