<svg id="Capa_1" data-name="Capa 1" xmlns="http://www.w3.org/2000/svg" viewBox="0 0 240 80"><defs><style>.cls-1{fill:#858585;}</style></defs><title>Mesa de trabajo 1 copia 8</title><g id="P7LRtE"><path class="cls-1" d="M154.65,31.88v3.45c-3.44,0-6.84,0-10.28,0a34.3,34.3,0,0,0-.12,4.7c0,1.51,0,3,0,4.71,1.26.07,2.48,0,3.7,0h7.44l.31,3.58H141l-.12-29.5h14.42l.06,3.54H144.28c-.07,1.63,0,3.18,0,4.74s0,3,0,4.72Z"/><path class="cls-1" d="M173.73,56.58a2.62,2.62,0,0,1,.15,3.1c-.7,1.13-1.86,1.08-3,.89a2.5,2.5,0,0,1-1.31-2.11c.2-.31.5-.24.81-.25.61.3.7,1.26,1.68,1.32a2,2,0,0,0,.87-.8,1.44,1.44,0,0,0-.19-1.23c-.93-.62-2.5-.44-3.14-2a2.52,2.52,0,0,1,3.14-3.26,2.77,2.77,0,0,1,1.56,2.42c-.38.35-.74,0-1,.24-.46-.34-.24-1.06-.86-1.25-1.39-.06-1.41,0-1.5,1.37C171.45,56.13,172.83,55.7,173.73,56.58Z"/><path class="cls-1" d="M128.06,53.48v2.25a15.56,15.56,0,0,0,2.46.16c.3.34.16.74.14,1.2a22.43,22.43,0,0,1-2.51.15,5.48,5.48,0,0,0-.13,2h2.47a1.32,1.32,0,0,1,.2,1.29h-3.8a40,40,0,0,1-.1-8.27h3.78a1.22,1.22,0,0,1,.09,1.21Z"/><path class="cls-1" d="M156.39,59.42c.22-.16.66-.19.69-.24a1.76,1.76,0,0,0,.2-1.47c-.13-.12-.23-.28-.37-.35a5.16,5.16,0,0,0-.79-.24c-1.25-.34-2.33-.85-2.25-2.51.21-.5.15-1.29.72-1.82a2.88,2.88,0,0,1,2.56-.56,3.48,3.48,0,0,1,1.56,2c-.16.61-.59.66-1.11.6-.32-.47-.53-1.08-1.17-1.29a2.06,2.06,0,0,0-1.33.86,1.43,1.43,0,0,0,1.3,1.45,3.81,3.81,0,0,1,1.07.4,2.12,2.12,0,0,1,1.22,2.2,2.51,2.51,0,0,1-1.79,2.2l-.7.18a2.66,2.66,0,0,1-2.4-2.46c.24-.21.6-.11.94-.16C155.39,58.44,155.34,59.45,156.39,59.42Z"/><path class="cls-1" d="M160.52,53.52h-1.64a1.36,1.36,0,0,1,0-1.26h4.43a1.21,1.21,0,0,1,.08,1.16c-.44.31-1,0-1.56.25v6.66c-.45.43-.84.28-1.33.23Z"/><path class="cls-1" d="M137.5,52.31a1,1,0,0,1,1.23.28v7.87a1.36,1.36,0,0,1-1.23,0Z"/><path class="cls-1" d="M151.7,52.31a.94.94,0,0,1,1.21.27v7.87a1.24,1.24,0,0,1-1.21.06Z"/><path class="cls-1" d="M137.74,28.41a8.27,8.27,0,0,0-6.4-9.37,14.17,14.17,0,0,0-3.31-.25h-7c-.19,1.89-.16,28.13,0,29.67.53,0,1.09,0,1.64,0a3.06,3.06,0,0,0,1.66-.18V42.54c0-2,0-3.94,0-5.9,0-.44-.16-.92.54-1.31a38,38,0,0,1,5.12.23,4.33,4.33,0,0,1,3.76,4.22c0,1.07,0,2.14,0,3.21v5.39h3.66c0-3,0-6,0-9a3.51,3.51,0,0,0-.09-.65,7.47,7.47,0,0,0-3-4.94c.51-.48.86-.86,1.24-1.18A6.45,6.45,0,0,0,137.74,28.41Zm-6.16,3a4.13,4.13,0,0,1-1.74.42c-1.73.06-3.46,0-5.1,0-.16-.19-.3-.28-.3-.37q0-4.42,0-8.87a20.61,20.61,0,0,1,6.58.12,4.24,4.24,0,0,1,3.12,3.68C134.34,29,133.52,30.36,131.58,31.43Z"/><path class="cls-1" d="M175,26.84a6.66,6.66,0,0,0-.59-2.73,8.42,8.42,0,0,0-7.45-5.29c-2.9-.19-5.82,0-8.8,0V48.46c2.77,0,5.4,0,8,0a8.43,8.43,0,0,0,3.87-.8,7.91,7.91,0,0,0,4.9-7.18C175,36,175,31.39,175,26.84ZM167,44.78c-1.63,0-3.26,0-4.89,0a2.72,2.72,0,0,1-.54-.11V22.85c0-.09.13-.19.27-.39,1.71,0,3.5-.08,5.28,0a4.67,4.67,0,0,1,4.14,4.32c0,4.55,0,9.1,0,13.65A4.67,4.67,0,0,1,167,44.78Z"/><path class="cls-1" d="M136.5,55.18c0-.48-.05-1-.07-1.38a3.48,3.48,0,0,0-1.73-1.51h-2.9v8.25a1.35,1.35,0,0,0,1.27-.15V57.33c1.27-.12,1.27-.12,2.06.54V60.5a1.18,1.18,0,0,0,1.28-.1V57.83c-.19-.4-.41-.85-.63-1.29Zm-1.54.28a2.83,2.83,0,0,1-1.85.28V53.69c.71-.39,1.32,0,1.92.34A1.8,1.8,0,0,1,135,55.46Z"/><path class="cls-1" d="M167,52.22h-1.51a2.25,2.25,0,0,0-1.62,1.63v6.61a.91.91,0,0,0,.86.1c.61-1,.28-2.23.53-3.41.68.14,1.28-.12,1.92.18.18,1.08-.12,2.2.17,3.25h1.22c0-1.85-.07-3.53,0-5.2A3.22,3.22,0,0,0,167,52.22Zm.15,3.56h-1.89c-.8-.8,0-1.38.13-2a1.17,1.17,0,0,1,1.8.31A4.78,4.78,0,0,1,167.11,55.78Z"/><path class="cls-1" d="M145.7,52.48v8.14c.71,0,1.33,0,1.94,0a2.42,2.42,0,0,0,2.7-1.73v-5C149.33,52.2,148.08,51.81,145.7,52.48Zm2.71,6.77a3,3,0,0,1-1.38-.07V53.59a3.24,3.24,0,0,1,1.85.38c.75,1.35.19,2.84.41,4.18A1.89,1.89,0,0,1,148.41,59.25Z"/><path class="cls-1" d="M143,52.25c-2.19-.15-2.42,0-3.2,1.82v4.86a2.49,2.49,0,0,0,1.72,1.7c2.29,0,3-.66,3-2.93,0-.79,0-1.58,0-2.36A3.06,3.06,0,0,0,143,52.25Zm.17,6.45a2,2,0,0,1-1,.86,2.08,2.08,0,0,1-1-.77V54.06c1-.69,1-.69,2,0Z"/><path class="cls-1" d="M125.65,53.91c-1.23-2.14-3-1.68-4.67-1.65v8.36c.45-.09.87.21,1.35-.36V57.18a3.06,3.06,0,0,0,3.3-1.61A6.19,6.19,0,0,0,125.65,53.91Zm-1.36,1.33a1.93,1.93,0,0,1-2,.57V53.7a1.77,1.77,0,0,1,2,.36A2.26,2.26,0,0,1,124.29,55.24Z"/><polygon class="cls-1" points="80 48 73 48 90 18 111 54 104.59 54 90 28 80 48"/><polygon class="cls-1" points="90 32 106.58 61.23 66 61.23 69.16 56.05 97 56.05 87 37 90 32"/></g><polyline class="cls-1" points="85 23 70 49 91.76 49 95 55 61 55 82 18"/></svg>