<svg id="Capa_1" data-name="Capa 1" xmlns="http://www.w3.org/2000/svg" viewBox="0 0 240 80"><defs><style>.cls-1{fill:#858585;}.cls-2{fill:#fff;}</style></defs><title>Mesa de trabajo 1 copia 3</title><g id="RpxF0R"><rect class="cls-1" x="36.82" y="23" width="166.35" height="36.42"/><path class="cls-2" d="M96,52.85c-.17-1.37-.55-2.7,1.49-2.87.24,0,.59-.85.59-1.3q.06-7.68,0-15.36c0-.43-.41-1.22-.67-1.24-2.18-.14-1.4-1.62-1.49-2.79,4.56,0,9-.38,13.38.1s5.84,6.24,2.85,9.51c-.45.49-1,.9-1.59,1.44a3.94,3.94,0,0,0,.74.49c2.6.87,3.68,2.79,3.74,5.39s-1,4.72-3.47,5.85a6.36,6.36,0,0,1-2.29.75C104.94,52.89,100.58,52.85,96,52.85Zm7.35-3.57c2.23-.21,4.68.75,5.81-1.63a4.61,4.61,0,0,0-.27-3.91c-1.32-1.9-3.56-1.23-5.54-1.12Zm0-10.38c1.88-.1,3.89.51,4.77-1.48.44-1,.47-3-.13-3.43-1.14-.9-2.88-1-4.64-1.58Z"/><path class="cls-2" d="M138.85,52.9V50.27c1.87,0,2-1.17,2-2.68-.08-4.45,0-8.9,0-13.34,0-1.32.27-2.81-1.94-2.37V29.36c4.62,0,9.2-.34,13.71.1,3.48.35,5.88,2.71,7.08,6.15,1.94,5.54.53,12.26-3.53,15.11A11.12,11.12,0,0,1,151,52.8C147,53.11,143.05,52.9,138.85,52.9Zm7.31-3.79c5.8.53,8.6-1.7,8.93-6.91a21.89,21.89,0,0,0,0-3c-.38-5-4-7.44-8.9-6Z"/><path class="cls-2" d="M183.59,40.63c-.17,4.79-1.14,9-5.61,11.5-7.54,4.18-16.08-.28-16.91-8.81-.4-4.15.07-8.17,3-11.35,3.47-3.71,7.93-4.08,12.5-2.75,4.15,1.2,6,4.54,6.73,8.55A25.57,25.57,0,0,1,183.59,40.63Zm-5.23.52a34.94,34.94,0,0,0-.66-4c-.8-2.87-2.5-4.18-5.16-4.18s-5,1.31-5.49,4.07a25.84,25.84,0,0,0,0,8.28c.41,2.57,2.59,3.89,5.16,3.92a5.11,5.11,0,0,0,5.31-3.77A35.29,35.29,0,0,0,178.36,41.15Z"/><path class="cls-2" d="M95.63,53H86V50.43l1.8-.52c-.52-3.18-.52-3.18-3.58-3.18H81.94c-3,0-3,0-3.62,3.25,2.07,0,2.22,1.2,1.76,2.94H71.9a2.56,2.56,0,0,1,1.24-3.33c1-.64,1.28-2.4,1.74-3.72,1.79-5.07,3.57-10.16,5.24-15.27A2,2,0,0,1,82.44,29c4,0,4.09,0,5.4,3.74,1.65,4.7,3.21,9.43,4.85,14.14.44,1.28.6,2.7,2.22,3.38C95.39,50.47,95.36,51.87,95.63,53ZM85.88,42.83l-2.77-8.51-2.8,8.51Z"/><path class="cls-2" d="M138,53h-9.3c-.54-1.68-.68-3,1.67-3-.28-3.11-.47-3.3-3.26-3.31h-2.63c-3,0-3,0-3.44,3.19,2,.1,2.09,1.34,1.61,3h-8c-.07-1.31-.57-2.54,1.13-3.26.53-.22.84-1.16,1.07-1.83,2-5.71,4-11.43,5.89-17.17A2,2,0,0,1,124.9,29c4.35,0,4.29,0,5.69,4.2,1.72,5.16,3.54,10.3,5.33,15.43.15.42.41,1,.74,1.11C138.47,50.22,138.09,51.53,138,53Zm-15-10.2h5.52l-2.75-8.54Z"/><path class="cls-2" d="M55.91,46c2.32-.42,4.15-.63,4.32,2.23,0,.4.74,1,1.2,1.07a8.69,8.69,0,0,0,3.59,0,3.84,3.84,0,0,0,2.16-2,2.27,2.27,0,0,0-1.28-3c-1.35-.59-2.78-1-4.18-1.48-4.2-1.46-5.68-3.55-5.36-7.61.26-3.41,2.74-6,6.7-6.36a32.38,32.38,0,0,1,7.37.68,2.06,2.06,0,0,1,1.26,1.45,44.75,44.75,0,0,1,.06,4.77c-2.82.74-3.31.51-4.19-1.92-.56-1.54-1.87-1-2.93-1.07-1.48-.11-2.86.34-3.1,1.91a3.11,3.11,0,0,0,1,2.54,13.07,13.07,0,0,0,3.67,1.54c3.06,1,5.7,2.34,6.2,6.08s-1.64,7.68-5.48,8.14c-3.13.38-6.38-.14-9.57-.33-1.14-.06-1.54-.81-1.47-2C56,49.1,55.91,47.56,55.91,46Z"/><path class="cls-1" d="M103.38,49.28V42.62c2-.11,4.22-.78,5.54,1.12a4.61,4.61,0,0,1,.27,3.91C108.06,50,105.61,49.07,103.38,49.28Z"/><path class="cls-1" d="M103.4,38.9V32.41c1.76.54,3.5.68,4.64,1.58.6.48.57,2.44.13,3.43C107.29,39.41,105.28,38.8,103.4,38.9Z"/><path class="cls-1" d="M146.16,49.11v-16c4.93-1.4,8.52,1,8.9,6a21.89,21.89,0,0,1,0,3C154.76,47.41,152,49.64,146.16,49.11Z"/><path class="cls-1" d="M178.36,41.15a35.29,35.29,0,0,1-.83,4.29,5.11,5.11,0,0,1-5.31,3.77c-2.57,0-4.75-1.35-5.16-3.92a25.84,25.84,0,0,1,0-8.28c.47-2.76,2.72-4.08,5.49-4.07s4.36,1.31,5.16,4.18A34.94,34.94,0,0,1,178.36,41.15Z"/><path class="cls-1" d="M85.88,42.83H80.31l2.8-8.51Z"/><path class="cls-1" d="M122.93,42.79l2.77-8.54,2.75,8.54Z"/></g><polygon class="cls-2" points="81.39 26.24 84.94 23.58 91.15 23.58 82.28 28.02 81.39 26.24"/></svg>