<svg id="Capa_1" data-name="Capa 1" xmlns="http://www.w3.org/2000/svg" viewBox="0 0 240 80"><defs><style>.cls-1{fill:#fff;}.cls-2{fill:#858585;}</style></defs><title>Mesa de trabajo 1 copia 5</title><g id="_636YnP" data-name="636YnP"><path class="cls-1" d="M78.35,21.48c.05.68.21,1.26-.67,1.62s-.86,1.17-.89,1.91c-.06,1.93-.07,3.86-.08,5.8,0,2.26,0,4.52,0,6.85h4.42a4.58,4.58,0,0,0,.07-.55c0-3.69,0-7.39,0-11.08a7.57,7.57,0,0,0-.26-2,1.48,1.48,0,0,0-.67-.95c-.83-.33-.8-.91-.69-1.64h6.33v1.28a2.2,2.2,0,0,0-1.49,2.3c-.06,1.22-.12,2.44-.12,3.66q0,11.85,0,23.68a14.71,14.71,0,0,0,.3,2.72,1.37,1.37,0,0,0,.65.95c.88.3.7.9.63,1.61H79.54V56.46A1.91,1.91,0,0,0,81,54.39c0-3,.09-6.11.12-9.16,0-1.63,0-3.25,0-4.94H76.81a.8.8,0,0,0-.09.26c0,4.53,0,9.06.07,13.59a2.07,2.07,0,0,0,1.56,2.34v1.25h-6.3c-.06-.65-.23-1.18.59-1.63.46-.26.68-1.08.84-1.69a6.86,6.86,0,0,0,.13-1.82q0-12.71,0-25.43a18.27,18.27,0,0,0-.26-2.95,1.5,1.5,0,0,0-.65-1.05c-.81-.36-.78-.94-.65-1.68Z"/><path class="cls-1" d="M96,48.34c-.11-1.23-.18-2.47-.35-3.69a20,20,0,0,0-.63-3A2.15,2.15,0,0,0,93,40c0,.28,0,.53,0,.77,0,4.12,0,8.25,0,12.37a11.64,11.64,0,0,0,.14,1.67A1.18,1.18,0,0,0,94.43,56a3,3,0,0,0,2.68-1.5,13.53,13.53,0,0,0,1.75-4.85c.21-.89.33-1.8.53-2.7,0-.15.22-.27.34-.4.07.14.22.28.21.42-.23,3.55-.48,7.1-.73,10.7H88.26c-.08-.67-.27-1.28.63-1.56a1.29,1.29,0,0,0,.65-.87,10.81,10.81,0,0,0,.32-2.33q0-13.39,0-26.81a9.49,9.49,0,0,0-.32-2.17A1.27,1.27,0,0,0,89,23.1c-.91-.3-.72-.94-.65-1.63H99.05c0,.29,0,.56,0,.83q0,4.62,0,9.24a2.8,2.8,0,0,1-.21.72,4.2,4.2,0,0,1-.29-.74c-.33-1.95-.54-3.93-1-5.85a3,3,0,0,0-3.27-2.42,1.11,1.11,0,0,0-1.24,1.06c0,.36-.1.71-.11,1.06v12.3c0,.15,0,.3,0,.44a1.75,1.75,0,0,0,2-1.32A34.67,34.67,0,0,0,95.77,33c.12-.72.12-1.47.21-2.2a2.1,2.1,0,0,1,.27-.54l.2.07c0,.22,0,.44,0,.66q0,8.36,0,16.72a2.84,2.84,0,0,1-.16.7Z"/><path class="cls-1" d="M147.14,57.7V56.41c1.08-.16,1.36-1,1.45-1.93s.15-1.67.15-2.51c0-8.22.07-16.45-.06-24.67,0-1.46-.91-2.91-1.36-4.37a10.47,10.47,0,0,1-.26-1.48c1.36,0,2.57,0,3.78,0,.17,0,.39.41.46.67.94,3.2,1.85,6.4,2.77,9.61l3.33,11.67a.43.43,0,0,0,.23.28c0-.21.06-.41.06-.61,0-5.11,0-10.23,0-15.35a25.63,25.63,0,0,0-.29-3.26,1.94,1.94,0,0,0-1.1-1.55c-.69-.35-.2-.93-.38-1.45h4a1.48,1.48,0,0,1-.56,1.78,2.06,2.06,0,0,0-.68,1.3,19.85,19.85,0,0,0-.17,2.89q0,15.15,0,30.32v.89l-.27.11a3.29,3.29,0,0,1-.44-.74q-1.93-6.66-3.86-13.34L150,31.05a1.63,1.63,0,0,0-.38-.72c0,.19,0,.38,0,.57q0,10.27,0,20.55a23.38,23.38,0,0,0,.22,3.12A2.35,2.35,0,0,0,151,56.34c.3.18.32.83.51,1.36Z"/><path class="cls-1" d="M62.23,23.23a2.24,2.24,0,0,0-2.15,1.35,31.49,31.49,0,0,0-1.21,4.3,24.85,24.85,0,0,0-.26,2.88c0,.18-.2.33-.31.5-.08-.16-.22-.31-.22-.47,0-3.34,0-6.67,0-10a2.55,2.55,0,0,1,.05-.32H69.34V32.19c-.49,0-.47,0-.54-.63-.18-1.59-.34-3.18-.61-4.75a8.38,8.38,0,0,0-.78-2.22,2.25,2.25,0,0,0-2.15-1.32V24q0,14.31,0,28.63c0,.59.08,1.17.12,1.75.08,1.08.44,2,1.68,2v1.31H60.45V56.43c1.12-.1,1.49-.9,1.61-1.88a19.26,19.26,0,0,0,.16-2.28q0-14.16,0-28.32Z"/><path class="cls-1" d="M120.6,49.73a1.94,1.94,0,0,1,.31,2.12A55,55,0,0,1,118.59,57c-1.43,2.4-3.88,2.41-5.62.19a16.22,16.22,0,0,1-2.77-6.62,50.91,50.91,0,0,1-.94-13.88,34,34,0,0,1,2.16-11.47,12.5,12.5,0,0,1,2-3.37c1.34-1.57,3-1.52,4.54-.09.35.34.67.7,1,1,.53.49.8.42,1-.28.13-.44.17-.9.3-1.34a2.06,2.06,0,0,1,.36-.49l.2.13V33.27l-.2.13a2.76,2.76,0,0,1-.37-.61c-.58-2.34-1.07-4.7-1.72-7a7.83,7.83,0,0,0-1.26-2.41,1.49,1.49,0,0,0-2.72.14,11.16,11.16,0,0,0-1.22,3.65,91.32,91.32,0,0,0-.76,9.19c-.09,3.63,0,7.27.22,10.89a42,42,0,0,0,1.2,6.65c.25,1.1.83,2.22,2.14,2.3s2-.88,2.48-1.86c.63-1.21,1.11-2.51,1.64-3.77C120.4,50.3,120.48,50.05,120.6,49.73Z"/><path class="cls-2" d="M52.6,15.15V65H189.19V15.15Zm92.08,6.33c.09.7.29,1.31-.67,1.59a1.57,1.57,0,0,0-.75,1.05,10.32,10.32,0,0,0-.27,2.42q0,13.08,0,26.18a16.06,16.06,0,0,0,.12,1.83,1.83,1.83,0,0,0,1.61,1.87v1.29h-6.46V56.46c1.29-.22,1.52-1.26,1.59-2.37s.12-2.49.12-3.73q0-11.45,0-22.9a26.2,26.2,0,0,0-.25-3.19,1.61,1.61,0,0,0-1.13-1.4c-.77-.29-.19-.91-.41-1.39ZM109.26,36.73a34,34,0,0,1,2.16-11.47,12.5,12.5,0,0,1,2-3.37c1.34-1.57,3-1.52,4.54-.09.35.34.67.7,1,1,.53.49.8.42,1-.29.13-.43.17-.89.3-1.33a2.06,2.06,0,0,1,.36-.49l.2.13V33.27l-.2.13a2.76,2.76,0,0,1-.37-.61c-.58-2.34-1.07-4.7-1.72-7a7.83,7.83,0,0,0-1.26-2.41,1.49,1.49,0,0,0-2.72.14,11.16,11.16,0,0,0-1.22,3.65,91.32,91.32,0,0,0-.76,9.19c-.09,3.63,0,7.27.22,10.89a42,42,0,0,0,1.2,6.65c.25,1.1.83,2.22,2.14,2.3s2-.88,2.48-1.86c.63-1.21,1.11-2.51,1.64-3.77.11-.25.19-.5.31-.82a1.94,1.94,0,0,1,.31,2.12A55,55,0,0,1,118.59,57c-1.43,2.4-3.88,2.41-5.62.19a16.22,16.22,0,0,1-2.77-6.62A50.91,50.91,0,0,1,109.26,36.73ZM89.57,23.91A1.27,1.27,0,0,0,89,23.1c-.91-.3-.72-.94-.65-1.63H99.05c0,.29,0,.56,0,.83q0,4.62,0,9.24a2.8,2.8,0,0,1-.21.72,4.2,4.2,0,0,1-.29-.74c-.33-1.95-.54-3.93-1-5.85a3,3,0,0,0-3.27-2.42,1.11,1.11,0,0,0-1.24,1.06c0,.36-.1.71-.11,1.06v12.3c0,.15,0,.3,0,.44a1.75,1.75,0,0,0,2-1.32A34.67,34.67,0,0,0,95.77,33c.12-.72.12-1.47.21-2.2a2.1,2.1,0,0,1,.27-.54l.2.07c0,.22,0,.44,0,.66q0,8.36,0,16.72a3,3,0,0,1-.16.7l-.27,0c-.11-1.23-.18-2.47-.35-3.69a20,20,0,0,0-.63-3A2.15,2.15,0,0,0,93,40c0,.28,0,.53,0,.77,0,4.12,0,8.25,0,12.37a11.64,11.64,0,0,0,.14,1.67A1.18,1.18,0,0,0,94.43,56a3,3,0,0,0,2.68-1.5,13.53,13.53,0,0,0,1.75-4.85c.21-.89.33-1.8.53-2.7,0-.15.22-.27.34-.4.07.14.22.28.21.42-.23,3.55-.48,7.1-.73,10.7H88.26c-.08-.67-.27-1.28.63-1.56a1.29,1.29,0,0,0,.65-.87,10.81,10.81,0,0,0,.32-2.33q0-13.39,0-26.81A9.49,9.49,0,0,0,89.57,23.91ZM69.34,32.19c-.49,0-.47,0-.54-.63-.18-1.59-.34-3.18-.61-4.75a8.38,8.38,0,0,0-.78-2.22,2.25,2.25,0,0,0-2.15-1.32V24q0,14.31,0,28.63c0,.59.08,1.17.12,1.75.08,1.08.44,2,1.68,2v1.31H60.45V56.43c1.12-.1,1.49-.9,1.61-1.88a19.26,19.26,0,0,0,.16-2.28q0-14.16,0-28.32v-.72a2.24,2.24,0,0,0-2.15,1.35,31.49,31.49,0,0,0-1.21,4.3,24.85,24.85,0,0,0-.26,2.88c0,.18-.2.33-.31.5-.08-.16-.22-.31-.22-.47,0-3.34,0-6.67,0-10a2.55,2.55,0,0,1,.05-.32H69.34Zm16.48,25.5H79.54V56.46A1.91,1.91,0,0,0,81,54.39c0-3,.09-6.11.12-9.16,0-1.63,0-3.25,0-4.94H76.81a.8.8,0,0,0-.09.26c0,4.53,0,9.06.07,13.59a2.07,2.07,0,0,0,1.56,2.34v1.25h-6.3c-.06-.65-.23-1.18.59-1.64.46-.25.68-1.07.84-1.68a6.86,6.86,0,0,0,.13-1.82q0-12.71,0-25.43a18.27,18.27,0,0,0-.26-2.95,1.5,1.5,0,0,0-.65-1.05c-.81-.36-.78-.94-.65-1.68h6.3c.05.68.21,1.26-.67,1.62s-.86,1.17-.89,1.91c-.06,1.93-.07,3.86-.08,5.8,0,2.26,0,4.52,0,6.85h4.42a4.58,4.58,0,0,0,.07-.55c0-3.69,0-7.39,0-11.08a7.57,7.57,0,0,0-.26-2,1.53,1.53,0,0,0-.67-1c-.83-.32-.8-.9-.69-1.63h6.33v1.28a2.2,2.2,0,0,0-1.49,2.3c-.06,1.22-.12,2.44-.12,3.66q0,11.85,0,23.68a14.71,14.71,0,0,0,.3,2.72,1.37,1.37,0,0,0,.65.95C86.07,56.38,85.89,57,85.82,57.69Zm49.56-6.5q-.18,3-.38,5.94c0,.34,0,.66-.49.66-3.44,0-6.87,0-10.39,0,0-.45,0-.84-.06-1.29a2.23,2.23,0,0,0,1.57-2.34c0-.58.1-1.17.11-1.75q0-12.94,0-25.89a13.28,13.28,0,0,0-.14-1.9,1.88,1.88,0,0,0-1.48-1.82V21.48h6.4c.29,1,.25,1.1-.64,1.53a1.81,1.81,0,0,0-1,1.68c-.09,1-.15,2-.16,3q0,12.57,0,25.13a15.18,15.18,0,0,0,.14,1.9A1.39,1.39,0,0,0,130.65,56a3.19,3.19,0,0,0,2.56-2.27c.67-2,1.12-4,1.64-6.09.14-.56.16-1.16.28-1.73,0-.17.25-.31.37-.46l.22.16C135.61,47.49,135.5,49.34,135.38,51.19Zm24-27.92a2.06,2.06,0,0,0-.68,1.3,19.85,19.85,0,0,0-.17,2.89q0,15.15,0,30.32v.89l-.27.11a3.29,3.29,0,0,1-.44-.74q-1.93-6.66-3.86-13.34L150,31.05a1.63,1.63,0,0,0-.38-.72c0,.19,0,.38,0,.57q0,10.27,0,20.55a23.38,23.38,0,0,0,.22,3.12A2.35,2.35,0,0,0,151,56.34c.3.18.32.83.51,1.36h-4.36V56.41c1.08-.16,1.36-1,1.45-1.93s.15-1.67.15-2.51c0-8.22.07-16.45-.06-24.67,0-1.46-.91-2.91-1.36-4.37a10.47,10.47,0,0,1-.26-1.48c1.36,0,2.57,0,3.78,0,.17,0,.39.41.46.67.94,3.2,1.85,6.4,2.77,9.61l3.33,11.67a.43.43,0,0,0,.23.28c0-.21.06-.41.06-.61,0-5.11,0-10.23,0-15.35a25.63,25.63,0,0,0-.29-3.26,1.94,1.94,0,0,0-1.1-1.55c-.69-.35-.2-.93-.38-1.45h4A1.48,1.48,0,0,1,159.36,23.27Zm7.89,31.14c.11,1,.43,1.85,1.61,2v1.3h-6.47V56.43c1.18-.16,1.44-1.09,1.55-2.09a17.33,17.33,0,0,0,.09-1.91q0-12.85,0-25.73a13.15,13.15,0,0,0-.24-2.5c-.08-.4-.37-1-.7-1.09-.87-.3-.83-.87-.71-1.6h6.47c.06.67.28,1.29-.68,1.57-.34.09-.66.65-.75,1a10.94,10.94,0,0,0-.26,2.42q0,13.1,0,26.19C167.16,53.29,167.19,53.85,167.25,54.41Zm16.22-2.79c-.7,1.63-1.21,3.37-2.06,4.91-1.68,3-4.32,3.06-6.28.19a17.86,17.86,0,0,1-2.68-7.33,54.24,54.24,0,0,1,.42-20.86A16.63,16.63,0,0,1,175.05,23a6.8,6.8,0,0,1,1.17-1.4,2.75,2.75,0,0,1,3.93-.05c.52.44,1,.94,1.48,1.42s.66.26.8-.18.23-1,.37-1.55c0-.16.21-.28.32-.42.08.13.23.27.23.4,0,4,0,8,0,12.06l-.31.1a4.88,4.88,0,0,1-.28-.68c-.46-2-.85-4.09-1.4-6.1a11.19,11.19,0,0,0-1.34-3c-1-1.51-2.39-1.43-3.17.19a11.58,11.58,0,0,0-1,3.19,84.55,84.55,0,0,0-.08,24,13.58,13.58,0,0,0,1.06,3.57c.88,2,2.61,2.17,3.81.37a33.4,33.4,0,0,0,2.12-4.38c.11-.24.19-.51.32-.85A1.77,1.77,0,0,1,183.47,51.62Z"/><path class="cls-1" d="M135.72,45.64c-.11,1.85-.22,3.7-.34,5.55s-.25,4-.38,5.94c0,.34,0,.66-.49.66-3.44,0-6.87,0-10.39,0l-.06-1.29a2.23,2.23,0,0,0,1.57-2.34c0-.58.1-1.17.11-1.75q0-12.94,0-25.89a13.28,13.28,0,0,0-.14-1.9,1.88,1.88,0,0,0-1.48-1.82V21.48h6.4c.29,1,.25,1.1-.64,1.53a1.81,1.81,0,0,0-1,1.68c-.09,1-.15,2-.16,3q0,12.57,0,25.13a15.18,15.18,0,0,0,.14,1.9A1.4,1.4,0,0,0,130.65,56a3.22,3.22,0,0,0,2.56-2.28c.67-2,1.12-4,1.64-6.09.14-.56.16-1.16.28-1.73,0-.17.25-.31.37-.46Z"/><path class="cls-1" d="M168.86,56.41v1.3h-6.47V56.43c1.18-.16,1.44-1.09,1.55-2.09a17.33,17.33,0,0,0,.09-1.91q0-12.85,0-25.73a13.15,13.15,0,0,0-.24-2.5c-.08-.4-.37-1-.7-1.09-.87-.3-.83-.87-.71-1.61h6.47c.06.68.28,1.3-.68,1.58-.34.09-.66.65-.75,1a10.94,10.94,0,0,0-.26,2.42q0,13.1,0,26.19c0,.56,0,1.12.1,1.68C167.36,55.41,167.68,56.26,168.86,56.41Z"/><path class="cls-1" d="M138.16,21.48h6.52c.09.7.29,1.31-.67,1.59a1.57,1.57,0,0,0-.75,1.05,10.32,10.32,0,0,0-.27,2.42q0,13.08,0,26.18a16.06,16.06,0,0,0,.12,1.83,1.83,1.83,0,0,0,1.61,1.87v1.29h-6.46V56.46c1.29-.22,1.52-1.26,1.59-2.37s.12-2.49.12-3.73q0-11.45,0-22.9a26.2,26.2,0,0,0-.25-3.19,1.61,1.61,0,0,0-1.13-1.4C137.8,22.58,138.38,22,138.16,21.48Z"/></g></svg>