<?xml version="1.0" encoding="utf-8"?>
<!-- Generator: Adobe Illustrator 21.1.0, SVG Export Plug-In . SVG Version: 6.00 Build 0)  -->
<svg version="1.1" id="Capa_1" xmlns="http://www.w3.org/2000/svg" xmlns:xlink="http://www.w3.org/1999/xlink" x="0px" y="0px"
	 viewBox="0 0 240 80" style="enable-background:new 0 0 240 80;" xml:space="preserve">
<style type="text/css">
	.st0{fill:#858585;}
</style>
<title>Mesa de trabajo 1 copia 9</title>
<path id="rect4196" class="st0" d="M157.9,17.7c-0.3,0-0.6,0-0.9,0c-4.5,0.2-8.1,1.9-10.5,4.1c-0.3,0.3-0.7,0.8-1,0.9v-4h-8.8v43.4
	h9.1V41.8c0-3.7-0.1-6.7,0.8-9.2c0.9-2.3,2.5-4.3,4.8-5.4c2.4-1.1,6.2-1.8,8.8-0.3c0.9,0.5,1.5,1.1,2.1,2.1c1.6,2.7,1.2,7,1.2,11.3
	v21.8h9V39.7c0-2.6,0.2-5.1,0.1-7.4c-0.3-6.9-3.2-12-8.8-13.6C162,18.2,160,17.8,157.9,17.7L157.9,17.7z M72.9,18.5
	c-0.4,0-0.7,0-1.1,0.1c-1.8,0.2-3.2,1.3-3.8,2.4c-1.4,2.6,0.1,5.6,2.4,6.4c0.8,0.3,1.9,0.2,2.9,0.2c3.4,0,6.4-0.1,9.6,0.1v27.8
	c0,1.4-0.1,2.7,0.2,3.8c0.3,0.8,0.9,1.7,1.5,2.1c2.7,2,6.3,0.3,7.1-2.4c0.3-1,0.2-2.4,0.2-3.8V27.6h10.7c3.4,9.6,7,19,10.5,28.6
	c1,2.9,1.7,6.3,5.7,6c3.7-0.3,4.2-4,5.3-6.9c3.5-9.7,7.2-19.7,10.7-29.4c0.3-0.8,0.7-1.7,0.7-2.4c0.4-3.5-3-6-6.3-4.7
	c-1.8,0.7-2.4,2.5-3.1,4.3c-2.6,7.3-5.1,14.5-7.8,21.4c-2.6-7.1-5-14.1-7.7-21.2c-0.4-1-0.7-2.2-1.2-2.9c-1.3-1.8-3.2-1.9-6.3-1.9
	H76.3C75.2,18.6,74,18.5,72.9,18.5L72.9,18.5z"/>
</svg>
