<?xml version="1.0" encoding="utf-8"?>
<!-- Generator: Adobe Illustrator 21.1.0, SVG Export Plug-In . SVG Version: 6.00 Build 0)  -->
<svg version="1.1" id="Capa_1" xmlns="http://www.w3.org/2000/svg" xmlns:xlink="http://www.w3.org/1999/xlink" x="0px" y="0px"
	 viewBox="0 0 240 80" style="enable-background:new 0 0 240 80;" xml:space="preserve">
<style type="text/css">
	.st0{fill:#858585;}
</style>
<title>Mesa de trabajo 1 copia 9</title>
<path id="rect4196" class="st0" d="M163.6,14.4c-0.3,0-0.7,0-1,0c-5.2,0.2-9.3,2.2-12,4.8c-0.4,0.4-0.8,1-1.2,1v-4.7h-10.1v49.9
	h10.4V42.1c0-4.2-0.1-7.7,0.9-10.6c1-2.7,2.9-4.9,5.5-6.2c2.7-1.3,7.1-2.1,10.1-0.3c1,0.6,1.7,1.3,2.4,2.4c1.8,3.1,1.4,8.1,1.4,13
	v25.1h10.3V39.7c0-3,0.2-5.9,0.1-8.6c-0.3-8-3.7-13.8-10.2-15.7C168.3,14.9,166,14.4,163.6,14.4L163.6,14.4z M65.8,15.3
	c-0.4,0-0.8,0-1.3,0.1c-2.1,0.3-3.7,1.5-4.3,2.7c-1.6,3,0.2,6.4,2.8,7.4c1,0.3,2.2,0.3,3.4,0.3c3.9,0,7.3-0.1,11,0.1v32
	c0,1.6-0.1,3.1,0.3,4.3c0.3,0.9,1.1,2,1.8,2.5c3.1,2.3,7.3,0.3,8.1-2.7c0.3-1.2,0.2-2.8,0.2-4.3V25.7h12.4c3.9,11.1,8.1,21.8,12,33
	c1.2,3.3,2,7.3,6.5,6.9c4.2-0.3,4.9-4.6,6.1-8c4.1-11.2,8.3-22.6,12.4-33.8c0.4-1,0.8-1.9,0.9-2.7c0.4-4.1-3.5-6.9-7.2-5.4
	c-2,0.8-2.8,2.8-3.6,5c-3,8.3-5.9,16.7-9,24.7c-3-8.2-5.8-16.3-8.8-24.4c-0.4-1.2-0.8-2.5-1.4-3.4c-1.5-2.1-3.7-2.2-7.3-2.2h-31
	C68.4,15.3,67.1,15.2,65.8,15.3L65.8,15.3z"/>
</svg>
