<?xml version="1.0" encoding="utf-8"?>
<!-- Generator: Adobe Illustrator 21.1.0, SVG Export Plug-In . SVG Version: 6.00 Build 0)  -->
<svg version="1.1" id="Capa_1" xmlns="http://www.w3.org/2000/svg" xmlns:xlink="http://www.w3.org/1999/xlink" x="0px" y="0px"
	 viewBox="0 0 240 80" style="enable-background:new 0 0 240 80;" xml:space="preserve">
<style type="text/css">
	.st0{fill:#858585;}
</style>
<title>Mesa de trabajo 1 copia 9</title>
<path id="rect4196" class="st0" d="M172.1,9.9c-0.4,0-0.8,0-1.2,0c-6.2,0.3-11.1,2.6-14.4,5.7c-0.5,0.4-0.9,1.2-1.4,1.2v-5.6h-12
	v59.6h12.4V43c0-5.1-0.2-9.2,1.1-12.6c1.2-3.2,3.4-5.9,6.6-7.4c3.2-1.6,8.5-2.5,12-0.4c1.2,0.7,2.1,1.6,2.8,2.8
	c2.2,3.7,1.6,9.7,1.6,15.5v29.9h12.3V40c0-3.5,0.2-7,0.1-10.2c-0.4-9.5-4.4-16.4-12.1-18.7C177.7,10.4,174.9,9.9,172.1,9.9
	L172.1,9.9z M55.3,10.9c-0.5,0-1,0-1.5,0.1c-2.5,0.3-4.4,1.7-5.2,3.2c-1.9,3.6,0.2,7.7,3.3,8.8c1.2,0.4,2.6,0.3,4,0.3
	c4.6,0,8.7-0.1,13.1,0.1v38.2c0,1.9-0.2,3.7,0.3,5.2c0.4,1.1,1.3,2.3,2.1,2.9c3.7,2.7,8.7,0.4,9.7-3.2c0.4-1.4,0.2-3.3,0.2-5.2v-38
	h14.7c4.7,13.2,9.7,26,14.4,39.3c1.4,4,2.4,8.7,7.8,8.3c5.1-0.4,5.8-5.5,7.3-9.5c4.9-13.4,9.9-27,14.8-40.3c0.4-1.2,0.9-2.3,1-3.2
	c0.5-4.9-4.2-8.3-8.6-6.5c-2.4,1-3.3,3.4-4.3,6c-3.6,10-7,19.9-10.7,29.4c-3.6-9.7-6.9-19.4-10.5-29.1c-0.5-1.4-1-3-1.7-4
	c-1.7-2.5-4.4-2.6-8.7-2.6H60C58.4,11,56.8,10.9,55.3,10.9L55.3,10.9z"/>
</svg>
